<svg width="50" height="49" viewBox="0 0 50 49" fill="none" xmlns="http://www.w3.org/2000/svg">
<g opacity="0.5" clip-path="url(#clip0_34_7)">
<path d="M32.8125 2.20125C32.878 2.22254 32.9435 2.24382 33.011 2.26574C35.5377 3.09756 37.8646 4.40298 39.9414 6.02938C39.9982 6.07384 40.055 6.1183 40.1135 6.1641C41.5152 7.27437 42.8656 8.53603 43.9453 9.95321C44.0144 10.0418 44.0144 10.0418 44.0849 10.1322C44.9616 11.2589 45.708 12.4351 46.3867 13.6856C46.4265 13.7582 46.4662 13.8307 46.5072 13.9054C47.8432 16.3815 48.6366 19.2336 48.9258 22.0118C48.9366 22.103 48.9474 22.1941 48.9586 22.2881C49.5411 28.0663 47.8132 34.3022 44.0914 38.8541C44.011 38.9493 43.9305 39.0445 43.8477 39.1427C43.8056 39.1934 43.7636 39.2442 43.7203 39.2965C42.5782 40.6732 41.297 42.0031 39.8437 43.0665C39.7533 43.1342 39.7533 43.1342 39.6611 43.2033C38.5114 44.0624 37.3112 44.7939 36.0352 45.4591C35.9611 45.498 35.8871 45.537 35.8108 45.5771C33.2843 46.8864 30.374 47.6639 27.5391 47.9473C27.446 47.958 27.353 47.9686 27.2572 47.9795C21.6785 48.5196 15.789 47.0391 11.2305 43.8321C11.1308 43.7625 11.0311 43.693 10.9283 43.6213C9.12691 42.3297 7.39298 40.8035 6.05468 39.047C5.98557 38.9584 5.98557 38.9584 5.91507 38.868C5.03844 37.7412 4.29202 36.565 3.61328 35.3145C3.57353 35.242 3.53378 35.1695 3.49283 35.0947C2.15677 32.6187 1.36343 29.7666 1.07422 26.9884C1.06339 26.8972 1.05256 26.806 1.04141 26.7121C0.434744 20.6945 2.33277 14.5785 6.15234 9.8575C6.19351 9.80595 6.23467 9.7544 6.27708 9.70129C7.45077 8.24193 8.83521 6.85615 10.375 5.76839C10.5598 5.63741 10.7419 5.50316 10.9241 5.3688C14.2537 2.95179 18.3457 1.46424 22.4609 1.05282C22.554 1.04221 22.647 1.0316 22.7428 1.02067C26.1331 0.692416 29.5933 1.13447 32.8125 2.20125ZM17.2852 5.55086C17.217 5.57674 17.1489 5.60262 17.0786 5.62928C12.1498 7.53526 8.1018 11.5551 5.95703 16.2696C3.78564 21.2352 3.58022 26.784 5.57632 31.8459C5.80659 32.4095 6.0684 32.9545 6.34765 33.4962C6.3801 33.5604 6.41255 33.6246 6.44598 33.6908C8.92418 38.5752 13.4074 42.1993 18.6523 43.9278C23.9051 45.5764 29.6156 45.0873 34.5351 42.6518C39.5938 40.0148 43.3201 35.5516 44.9932 30.1918C46.2972 25.8183 46.0204 21.1751 44.3359 16.9395C44.2963 16.8394 44.2963 16.8394 44.2559 16.7371C42.311 11.9069 38.2091 7.93985 33.3984 5.83797C31.4526 5.02079 29.4444 4.46676 27.3437 4.21102C27.2469 4.19844 27.1501 4.18585 27.0504 4.17289C23.7435 3.82381 20.3686 4.37319 17.2852 5.55086Z" fill="black"/>
<path d="M26.5922 20.7088C27.3929 21.1784 27.8351 21.8293 28.125 22.6815C28.1347 22.8651 28.1386 23.049 28.1394 23.2328C28.1401 23.3478 28.1408 23.4628 28.1415 23.5812C28.1418 23.7088 28.142 23.8364 28.1423 23.964C28.1429 24.0983 28.1435 24.2326 28.1442 24.3668C28.1463 24.8081 28.1473 25.2493 28.1483 25.6906C28.1487 25.8427 28.1491 25.9948 28.1495 26.1469C28.1513 26.8619 28.1527 27.5769 28.1535 28.2919C28.1545 29.1159 28.157 29.9399 28.161 30.7639C28.164 31.4016 28.1654 32.0392 28.1657 32.6768C28.1659 33.0573 28.1668 33.4377 28.1693 33.8182C28.1716 34.1766 28.172 34.535 28.171 34.8935C28.1709 35.0864 28.1727 35.2794 28.1747 35.4723C28.1688 36.4838 27.965 37.2696 27.2449 38.0176C26.542 38.6253 25.698 38.9034 24.7665 38.8786C23.9135 38.801 23.2637 38.4903 22.6562 37.8983C22.1717 37.3046 21.8514 36.7524 21.8489 35.9799C21.8476 35.8057 21.8476 35.8057 21.8463 35.6279C21.8464 35.4999 21.8465 35.3719 21.8466 35.244C21.846 35.1086 21.8454 34.9732 21.8446 34.8378C21.8429 34.4706 21.8424 34.1034 21.8423 33.7362C21.8422 33.5065 21.8418 33.2768 21.8412 33.0471C21.8394 32.245 21.8386 31.4429 21.8388 30.6408C21.8389 29.8945 21.8369 29.1482 21.8338 28.4018C21.8312 27.76 21.8302 27.1183 21.8303 26.4765C21.8303 26.0936 21.8298 25.7108 21.8277 25.3279C21.8258 24.9675 21.8258 24.6072 21.8272 24.2467C21.8275 24.0525 21.8259 23.8583 21.8242 23.664C21.8313 22.6558 22.058 21.9665 22.7611 21.2258C23.8349 20.2482 25.2763 20.0984 26.5922 20.7088Z" fill="black"/>
<path d="M27.0687 10.8398C27.6423 11.3766 28.1158 12.0385 28.1673 12.8324C28.1696 12.9692 28.1697 13.1061 28.1677 13.2429C28.1665 13.3505 28.1665 13.3505 28.1653 13.4602C28.1384 14.3234 27.8368 14.8942 27.2388 15.5241C26.4875 16.208 25.6883 16.4185 24.675 16.4007C23.802 16.3143 23.1099 15.9573 22.5216 15.3244C21.8525 14.465 21.7432 13.4921 21.875 12.4414C22.1413 11.568 22.6605 10.9665 23.4485 10.5011C24.6207 9.89111 26.0353 10.0133 27.0687 10.8398Z" fill="black"/>
</g>
<defs>
<clipPath id="clip0_34_7">
<rect width="50" height="49" fill="white"/>
</clipPath>
</defs>
</svg>
