<svg width="50" height="50" viewBox="0 0 50 50" fill="none" xmlns="http://www.w3.org/2000/svg">
<g opacity="0.2" clip-path="url(#clip0_34_5)">
<path d="M41.1406 5.56258C45.9359 9.60756 49.1857 15.245 50 21.5001C50.0724 22.6521 50.0836 23.7991 50.0781 24.9532C50.0767 25.2635 50.0753 25.5737 50.0739 25.8934C50.0454 28.0317 49.9233 29.9572 49.25 32.0001C49.1755 32.2333 49.1755 32.2333 49.0995 32.4713C46.9738 39.0124 42.6659 44.2977 36.5479 47.4981C30.7924 50.3467 23.6767 51.1143 17.5062 49.1734C10.8313 46.8878 5.4478 42.3577 2.25586 36.046C-0.520084 30.2676 -1.08776 23.0972 1 17.0001C3.38881 10.3606 8.07931 5.07819 14.4415 2.02181C23.373 -2.02687 33.5433 -0.400679 41.1406 5.56258ZM22.0331 17.3429C21.3882 17.9801 20.7414 18.6152 20.0898 19.2456C19.4541 19.8608 18.8235 20.4808 18.1961 21.1045C17.8426 21.4534 17.4843 21.7974 17.1258 22.1413C15.8385 23.3726 15.8385 23.3726 15.1842 24.9763C15.4095 26.6163 17.081 27.8261 18.2168 28.921C18.4963 29.1974 18.7753 29.4742 19.054 29.7514C19.7867 30.4779 20.5254 31.1982 21.2654 31.9174C21.8697 32.5066 22.4697 33.1 23.0695 33.6938C24.3073 34.9189 25.5478 36.1413 26.7958 37.356C27.0167 37.5714 27.2377 37.7869 27.4653 38.0089C28.095 38.5874 28.3557 38.7308 29.2031 38.8438C30.0391 38.8095 30.0391 38.8095 30.7344 38.2345C31.3134 37.5445 31.3134 37.5445 31.3023 36.7334C31.0296 35.2505 29.7139 34.2824 28.6787 33.2823C28.446 33.0517 28.2133 32.8211 27.9735 32.5836C27.3574 31.9732 26.737 31.3674 26.1154 30.7625C25.481 30.1435 24.8508 29.5201 24.2202 28.8971C22.9843 27.6772 21.7437 26.4621 20.5 25.2501C20.8626 24.4126 21.3172 23.879 21.9708 23.2464C22.2698 22.9546 22.2698 22.9546 22.5749 22.657C22.898 22.3449 22.898 22.3449 23.2275 22.0264C23.6806 21.5821 24.1336 21.1376 24.5864 20.693C25.3014 19.9935 26.0172 19.295 26.7361 18.5996C27.4294 17.9276 28.1178 17.2509 28.8057 16.5733C29.1295 16.2635 29.1295 16.2635 29.4598 15.9474C30.6803 14.7916 30.6803 14.7916 31.2944 13.2758C31.3159 12.4568 31.3159 12.4568 30.7344 11.7657C30.0452 11.2189 30.0452 11.2189 29.2969 11.0626C26.56 11.7066 24.0144 15.3851 22.0331 17.3429Z" fill="#827D7D"/>
</g>
<defs>
<clipPath id="clip0_34_5">
<rect width="50" height="50" fill="white"/>
</clipPath>
</defs>
</svg>
