<svg width="50" height="49" viewBox="0 0 50 49" fill="none" xmlns="http://www.w3.org/2000/svg">
<g opacity="0.5">
<path d="M12.0312 6.12511C12.4776 6.363 12.7881 6.67462 13.125 7.04386C13.2183 7.14512 13.3115 7.24638 13.4076 7.35071C13.5952 7.55907 13.781 7.76901 13.9648 7.98055C14.2914 8.35134 14.642 8.69291 15 9.03448C15.3956 9.42216 15.7908 9.80974 16.1816 10.2021C16.5443 10.5655 16.5443 10.5655 16.9238 10.8241C17.0108 10.8905 17.0979 10.9568 17.1875 11.0251C17.1875 11.1262 17.1875 11.2272 17.1875 11.3314C17.2758 11.3681 17.3642 11.4049 17.4552 11.4428C17.8872 11.6784 18.1801 11.9612 18.5289 12.3049C18.6696 12.4428 18.8103 12.5808 18.9553 12.7229C19.1074 12.8735 19.2595 13.0242 19.4116 13.1748C19.5683 13.329 19.7251 13.483 19.8819 13.637C20.2936 14.0416 20.7043 14.4471 21.1148 14.8529C21.5343 15.2671 21.9546 15.6804 22.3749 16.0938C23.1987 16.9044 24.0215 17.716 24.8438 18.5282C25.501 18.277 25.9386 17.8013 26.4235 17.3187C26.5176 17.2263 26.6117 17.1338 26.7086 17.0386C27.0195 16.733 27.3293 16.4262 27.6392 16.1195C27.8559 15.9061 28.0727 15.6929 28.2896 15.4797C28.8611 14.9176 29.4316 14.3547 30.002 13.7915C30.9124 12.8927 31.8238 11.9949 32.7358 11.0977C33.053 10.7853 33.3695 10.4724 33.6861 10.1595C35.4273 8.44203 35.4273 8.44203 36.3263 7.70041C36.8024 7.30296 37.239 6.87835 37.6074 6.38351C38.1105 6.02376 38.5255 6.04451 39.1351 6.02881C39.6927 6.16437 39.9159 6.48793 40.3125 6.89073C40.5879 7.14407 40.864 7.39666 41.1407 7.64858C41.3745 7.86634 41.6074 8.08483 41.8401 8.30366C42.0001 8.45277 42.1615 8.60047 42.3243 8.74674C43.6671 9.95693 43.6671 9.95693 43.8677 10.6892C43.8863 11.3771 43.7957 11.8086 43.3594 12.3554C43.1823 12.5297 42.9996 12.6986 42.8125 12.8626C42.7092 12.954 42.6058 13.0454 42.4994 13.1396C42.2868 13.3234 42.0726 13.5055 41.8567 13.6857C41.4783 14.0057 41.1298 14.3493 40.7812 14.7001C40 15.4657 40 15.4657 39.651 15.8071C39.2486 16.202 38.8478 16.5983 38.4474 16.9951C38.0458 17.3928 37.6434 17.7896 37.241 18.1864C37.0284 18.3962 36.8161 18.6064 36.6041 18.8168C36.2974 19.1211 35.9897 19.4244 35.6818 19.7275C35.5867 19.8222 35.4917 19.917 35.3937 20.0146C35.1642 20.2396 34.9265 20.4567 34.6875 20.672C34.5844 20.672 34.4813 20.672 34.375 20.672C34.3331 20.7699 34.2912 20.8678 34.248 20.9687C34.0625 21.2845 34.0625 21.2845 33.5938 21.4376C33.5422 21.5387 33.4906 21.6397 33.4375 21.7439C33.3859 21.8449 33.3344 21.946 33.2812 22.0501C33.1266 22.1006 32.9719 22.1512 32.8125 22.2032C32.7609 22.3043 32.7094 22.4054 32.6562 22.5095C32.6047 22.6105 32.5531 22.7116 32.5 22.8157C32.3453 22.8663 32.1906 22.9168 32.0312 22.9689C31.9797 23.0699 31.9281 23.171 31.875 23.2751C31.8234 23.3762 31.7719 23.4772 31.7188 23.5814C31.5641 23.6319 31.4094 23.6824 31.25 23.7345C31.0677 24.028 31.0677 24.028 30.9375 24.347C30.8859 24.448 30.8344 24.5491 30.7812 24.6532C30.8844 24.6532 30.9875 24.6532 31.0938 24.6532C31.3361 24.8943 31.3361 24.8943 31.6113 25.2179C32.0442 25.7167 32.4896 26.1867 32.9688 26.6439C38.4375 32.0032 38.4375 32.0032 38.7858 32.348C39.1847 32.7357 39.5897 33.1154 39.9981 33.4934C40.4061 33.8726 40.8099 34.2561 41.2136 34.6397C41.4267 34.8408 41.6412 35.0405 41.857 35.2388C42.1705 35.5274 42.4787 35.8208 42.7863 36.1155C42.8829 36.2023 42.9796 36.2891 43.0792 36.3786C43.6008 36.8891 43.8176 37.2573 43.8569 37.9888C43.8052 38.739 43.5701 39.0968 43.0035 39.6164C42.8896 39.7242 42.8896 39.7242 42.7735 39.8342C42.5328 40.0606 42.2873 40.2811 42.041 40.5017C41.7967 40.7278 41.5534 40.9549 41.3103 41.1822C41.0905 41.3865 40.8682 41.5882 40.6458 41.7898C40.3056 42.0813 40.3056 42.0813 40.1562 42.4157C40.0531 42.4157 39.95 42.4157 39.8438 42.4157C39.8438 42.5168 39.8438 42.6179 39.8438 42.722C39.1604 43.067 38.7072 43.0836 37.9688 42.8751C37.0462 42.2046 36.2426 41.3593 35.4333 40.5639C35.316 40.449 35.1986 40.3341 35.0776 40.2157C34.8314 39.9745 34.5853 39.7331 34.3394 39.4915C33.9653 39.124 33.5904 38.7574 33.2153 38.3908C32.9748 38.155 32.7343 37.9191 32.4939 37.6832C32.383 37.5749 32.2722 37.4665 32.158 37.3549C31.5838 36.7897 31.0341 36.2149 30.5129 35.6021C30.206 35.2497 29.8697 34.9295 29.5312 34.6064C26.4062 31.5439 26.4062 31.5439 25.9961 31.1323C25.6296 30.761 25.6296 30.761 25.1562 30.472C25.1562 30.3709 25.1562 30.2699 25.1562 30.1657C25.0531 30.1657 24.95 30.1657 24.8438 30.1657C24.8438 30.2668 24.8438 30.3679 24.8438 30.472C24.5978 30.7094 24.5978 30.7094 24.2676 30.9792C23.3976 31.7064 22.6362 32.495 21.8848 33.3383C21.5294 33.7235 21.1564 34.0865 20.7812 34.4532C20.495 34.7388 20.2091 35.0246 19.9235 35.3108C19.0915 36.1437 18.2568 36.9738 17.4204 37.8024C16.9156 38.3027 16.412 38.8039 15.9105 39.3074C15.4237 39.7961 14.9343 40.2822 14.4429 40.7665C14.2567 40.951 14.0715 41.1363 13.8873 41.3226C13.6293 41.5832 13.3681 41.8403 13.1059 42.0968C13.0313 42.1738 12.9566 42.2508 12.8797 42.3301C12.2526 42.932 11.7834 43.0014 10.9375 43.0282C10.4688 42.8847 10.4688 42.8847 10.1562 42.722C10.1562 42.6209 10.1562 42.5199 10.1562 42.4157C10.0531 42.4157 9.95 42.4157 9.84375 42.4157C9.84375 42.3147 9.84375 42.2136 9.84375 42.1095C9.68906 42.059 9.53437 42.0084 9.375 41.9564C9.375 41.8553 9.375 41.7542 9.375 41.6501C9.27187 41.6501 9.16875 41.6501 9.0625 41.6501C8.85315 41.4414 8.85315 41.4414 8.60352 41.1429C8.25881 40.7371 7.91508 40.3775 7.51465 40.0226C7.43649 39.9528 7.35832 39.8831 7.27779 39.8113C7.05011 39.6101 6.81888 39.4128 6.58752 39.2157C6.17359 38.6332 6.15977 38.2969 6.17728 37.6032C6.30483 36.9126 6.72913 36.5526 7.24243 36.0927C7.34425 35.9955 7.44607 35.8982 7.55098 35.798C7.87553 35.4895 8.20503 35.1867 8.53516 34.8839C8.86066 34.5783 9.18506 34.2717 9.50929 33.9648C9.71073 33.775 9.91312 33.5861 10.1166 33.3983C10.6733 32.8821 11.187 32.3501 11.6762 31.7717C11.9304 31.4804 12.2097 31.234 12.5098 30.9888C12.9987 30.5806 13.4578 30.1577 13.9062 29.7064C17.8125 25.8782 17.8125 25.8782 18.2324 25.4763C18.6114 25.1171 18.6114 25.1171 18.9062 24.6532C19.0094 24.6532 19.1125 24.6532 19.2188 24.6532C19.1414 24.5585 19.0641 24.4637 18.9844 24.3661C18.75 24.0407 18.75 24.0407 18.75 23.7345C18.6501 23.6934 18.5502 23.6524 18.4473 23.6101C18.125 23.4282 18.125 23.4282 17.9688 22.9689C17.8826 22.9281 17.7965 22.8874 17.7077 22.8455C17.1667 22.5736 16.7846 22.1489 16.3641 21.7271C16.2705 21.6346 16.1769 21.542 16.0804 21.4466C15.7814 21.1509 15.4834 20.8541 15.1855 20.5571C14.8892 20.2625 14.5927 19.9681 14.2957 19.6742C14.1112 19.4916 13.9272 19.3086 13.7437 19.125C13.2205 18.6063 12.6804 18.1211 12.1087 17.6539C11.812 17.4031 11.5593 17.129 11.3086 16.8343C10.8921 16.3551 10.4606 15.9052 10 15.4657C9.88721 15.352 9.77441 15.2383 9.6582 15.1212C9.26966 14.7489 8.87232 14.394 8.4668 14.0398C8.19631 13.8008 7.92612 13.5616 7.65625 13.322C7.5348 13.2152 7.41334 13.1084 7.28821 12.9984C6.62983 12.3931 6.19778 11.9426 6.09375 11.0251C6.27318 10.0552 6.9171 9.54075 7.61719 8.89093C7.8381 8.68256 8.05865 8.47381 8.27881 8.26467C8.38546 8.16344 8.49211 8.0622 8.60199 7.9579C8.88953 7.67293 9.15444 7.37943 9.4165 7.07197C10.1928 6.1689 10.8194 5.90267 12.0312 6.12511Z" fill="black"/>
</g>
</svg>
