<svg width="50" height="50" viewBox="0 0 50 50" fill="none" xmlns="http://www.w3.org/2000/svg">
<g opacity="0.5" clip-path="url(#clip0_34_15)">
<path d="M42.6758 7.91007C43.1016 8.19536 43.3064 8.51042 43.5165 8.96636C43.5482 9.03234 43.5798 9.09832 43.6124 9.16629C43.7163 9.38383 43.8186 9.60214 43.9209 9.82047C43.9941 9.97438 44.0675 10.1282 44.141 10.282C44.2936 10.6017 44.4457 10.9216 44.5974 11.2418C44.9127 11.9062 45.2351 12.5672 45.5573 13.2283C45.7304 13.5835 45.9029 13.9389 46.0754 14.2944C46.1095 14.3644 46.1435 14.4344 46.1785 14.5066C46.6072 15.3894 47.0354 16.2724 47.4633 17.1556C47.765 17.7782 48.0669 18.4006 48.3694 19.0227C48.5124 19.3167 48.6553 19.6108 48.7982 19.9048C48.8659 20.0442 48.9338 20.1836 49.0016 20.3229C49.5845 21.5196 49.5845 21.5196 49.8455 22.084C49.8894 22.1784 49.8894 22.1784 49.9341 22.2748C50.0559 22.6187 50.1033 22.9883 50 23.3398C49.6566 23.7301 49.3171 23.9548 48.8525 24.1832C48.7893 24.2146 48.7261 24.246 48.661 24.2783C48.4568 24.3794 48.2519 24.4791 48.0469 24.5788C47.9061 24.6481 47.7654 24.7174 47.6248 24.7869C46.5336 25.3242 45.4374 25.8511 44.3359 26.3671C44.3195 26.6613 44.3195 26.6613 44.4313 26.9271C44.6884 27.7474 44.6324 28.6958 44.2631 29.4719C43.7519 30.3716 43.0787 30.9626 42.0895 31.3029C41.7591 31.3786 41.4508 31.3657 41.1133 31.3476C41.106 31.4138 41.0987 31.48 41.0912 31.5482C40.9501 32.5466 40.55 33.3027 39.7583 33.9385C39.0715 34.4132 38.4246 34.5393 37.5977 34.5702C37.5973 34.659 37.5973 34.659 37.5969 34.7495C37.5556 35.645 37.1923 36.2915 36.5418 36.9018C35.8095 37.4898 35.1083 37.6605 34.1797 37.6952C34.1757 37.8 34.1716 37.9047 34.1675 38.0126C34.0484 38.9205 33.5603 39.7069 32.8507 40.2709C31.9636 40.8739 31.0274 40.9457 29.9805 40.8202C29.6464 40.7376 29.3882 40.6181 29.1016 40.4296C29.0361 40.3882 28.9706 40.3468 28.9032 40.3041C28.3669 39.9338 27.955 39.4625 27.5391 38.9648C27.1479 39.0883 26.7835 39.2318 26.4153 39.4122C26.3121 39.4624 26.209 39.5126 26.1028 39.5643C25.9927 39.6182 25.8825 39.6721 25.769 39.7277C25.533 39.8423 25.2969 39.9568 25.0607 40.071C25 40.1004 24.9392 40.1298 24.8767 40.16C24.2608 40.4575 23.6421 40.7487 23.022 41.0372C22.85 41.1172 22.6783 41.1974 22.5065 41.2777C20.0154 42.4337 20.0154 42.4337 18.5436 42.0047C17.6619 41.6599 17.0394 41.0698 16.6016 40.2343C16.3771 39.6516 16.2671 39.0993 16.3086 38.4765C16.2494 38.481 16.1903 38.4855 16.1293 38.4902C15.2072 38.5299 14.5544 38.2822 13.8428 37.6952C13.0416 36.9231 12.7348 36.1026 12.6961 35.0021C12.6958 34.924 12.6956 34.846 12.6953 34.7655C12.6314 34.7582 12.5674 34.7509 12.5015 34.7434C11.4981 34.5989 10.5411 34.2459 9.90257 33.4232C9.40876 32.6295 9.31717 31.8775 9.375 30.957C9.25415 30.9529 9.1333 30.9489 9.00879 30.9447C8.06867 30.8352 7.29113 30.3532 6.70128 29.626C6.18815 28.8755 6.03739 28.1646 6.04859 27.2643C6.04903 27.1967 6.04947 27.129 6.04992 27.0593C6.05106 26.8937 6.05282 26.728 6.05469 26.5624C5.99669 26.54 5.93869 26.5177 5.87894 26.4946C5.27203 26.2604 4.66525 26.0258 4.05853 25.7911C3.83248 25.7037 3.60639 25.6164 3.38028 25.5292C3.05414 25.4033 2.72812 25.2772 2.40212 25.151C2.30198 25.1124 2.20185 25.0738 2.09868 25.0341C0.233073 24.3108 0.233075 24.3108 2.31026e-06 23.9257C-0.110584 23.1498 0.117258 22.5144 0.404742 21.8043C0.447377 21.6952 0.490013 21.5861 0.533941 21.4736C0.649758 21.178 0.766995 20.8829 0.884881 20.5881C1.00889 20.2769 1.13097 19.9649 1.2532 19.653C1.45364 19.142 1.655 18.6314 1.857 18.1211C2.24091 17.1506 2.61717 16.1771 2.99335 15.2036C3.1063 14.9118 3.2197 14.6202 3.33326 14.3286C3.67784 13.4434 4.02019 12.5575 4.35463 11.6684C4.50604 11.266 4.65846 10.864 4.81092 10.462C4.88251 10.2723 4.95357 10.0824 5.02407 9.89227C5.12089 9.63118 5.21947 9.37083 5.31845 9.11056C5.34635 9.0338 5.37424 8.95703 5.40298 8.87795C5.57255 8.43833 5.71694 8.13713 6.15235 7.91007C6.8619 7.77219 7.4815 8.03947 8.1295 8.30222C8.23216 8.34248 8.33481 8.38274 8.44057 8.42422C8.76686 8.55255 9.09228 8.68293 9.41773 8.81339C9.63594 8.89961 9.8542 8.9857 10.0725 9.07165C10.4754 9.23057 10.878 9.39016 11.2802 9.55087C11.3696 9.58629 11.4589 9.62172 11.5509 9.65822C11.7312 9.73108 11.9105 9.80625 12.0889 9.88345C12.175 9.92017 12.261 9.95688 12.3497 9.99471C12.4258 10.0281 12.5019 10.0615 12.5803 10.0959C12.8857 10.1825 13.0774 10.1104 13.3555 9.97449C13.4419 9.92469 13.4419 9.92469 13.53 9.87388C14.9204 9.09217 16.3506 8.52738 17.9688 8.49601C18.4034 8.62399 18.6122 8.78716 18.8477 9.1796C18.9086 9.66692 18.8554 9.96161 18.5547 10.3515C18.2858 10.5307 18.1802 10.5784 17.8787 10.6307C17.8034 10.6447 17.7281 10.6586 17.6506 10.673C17.5703 10.6878 17.49 10.7025 17.4072 10.7177C16.2723 10.9425 14.629 11.289 13.9304 12.3005C13.8262 12.5206 13.7413 12.7408 13.6608 12.9707C13.6283 13.0558 13.5959 13.1409 13.5624 13.2286C13.4558 13.5097 13.3533 13.7921 13.2507 14.0746C13.1762 14.2733 13.1014 14.4718 13.0263 14.6702C12.867 15.0921 12.7093 15.5144 12.5525 15.9372C12.174 16.9557 11.78 17.9683 11.3882 18.9818C11.1859 19.5059 10.9849 20.0305 10.7838 20.555C10.4147 21.517 10.0425 22.4776 9.66797 23.4374C10.9452 22.7343 12.2199 22.0284 13.4766 21.289C14.4101 20.7398 15.3538 20.2112 16.3021 19.688C17.0263 19.2873 17.7437 18.8766 18.457 18.4569C19.4004 17.902 20.3538 17.3671 21.312 16.8381C22.0671 16.4206 22.8167 15.9948 23.5612 15.5589C23.6644 15.4985 23.6644 15.4985 23.7698 15.4369C23.8287 15.4022 23.8876 15.3675 23.9483 15.3318C24.0338 15.2835 24.0338 15.2835 24.1211 15.2343C24.1861 15.1976 24.2511 15.1609 24.3181 15.123C24.6321 14.9867 24.8677 15.061 25.1953 15.1366C25.4275 15.2446 25.6362 15.3539 25.8545 15.4845C25.9508 15.5404 25.9508 15.5404 26.0491 15.5974C26.2861 15.7355 26.5219 15.8755 26.7578 16.0155C26.9184 16.1102 27.0789 16.2048 27.2395 16.2994C27.7528 16.6018 28.2653 16.9054 28.7773 17.2099C28.8817 17.2719 28.986 17.3339 29.0935 17.3978C29.2889 17.5148 29.4836 17.6329 29.6774 17.7524C29.7632 17.8051 29.849 17.8579 29.9374 17.9122C30.0117 17.9585 30.086 18.0048 30.1626 18.0525C30.63 18.3024 31.0077 18.305 31.5186 18.1518C31.9212 17.9195 32.155 17.7319 32.2853 17.274C32.3537 16.8749 32.3679 16.6842 32.1728 16.3146C31.8926 15.9643 31.595 15.7305 31.2317 15.4723C31.0902 15.369 30.9488 15.2657 30.8075 15.1622C30.735 15.1095 30.6625 15.0568 30.5878 15.0025C30.2451 14.7513 29.9084 14.4924 29.5715 14.2333C29.4335 14.1275 29.2954 14.0217 29.1573 13.9159C29.0501 13.8338 29.0501 13.8338 28.9407 13.75C28.6018 13.4906 28.2626 13.2317 27.9232 12.9729C27.7459 12.8377 27.5686 12.7024 27.3914 12.5671C27.022 12.2852 26.6523 12.0042 26.2764 11.7309C26.2215 11.6907 26.1666 11.6506 26.11 11.6093C25.971 11.5082 25.8314 11.4082 25.6916 11.3082C25.3738 11.0339 25.3037 10.825 25.2502 10.4125C25.3069 9.94276 25.4506 9.80324 25.7813 9.47257C26.0869 9.31973 26.3219 9.34492 26.6602 9.37492C26.9008 9.50923 27.0934 9.63446 27.3071 9.80216C27.3653 9.8458 27.4236 9.88943 27.4835 9.93439C27.6661 10.0718 27.8467 10.2115 28.0273 10.3515C28.1451 10.4411 28.263 10.5306 28.381 10.62C29.2639 11.292 29.2639 11.292 29.4859 11.5346C29.9525 11.8216 30.4069 11.7668 30.9437 11.7568C31.1117 11.756 31.1117 11.756 31.2831 11.7551C31.6404 11.753 31.9975 11.7481 32.3547 11.7431C32.5972 11.7411 32.8396 11.7393 33.082 11.7377C33.6758 11.7334 34.2695 11.7269 34.8633 11.7187C34.9055 11.6259 34.9478 11.5332 34.9913 11.4376C35.1981 11.0554 35.44 10.9413 35.8215 10.7726C35.9635 10.7058 36.1054 10.639 36.2473 10.572C36.3616 10.519 36.3616 10.519 36.4782 10.4649C36.8162 10.3055 37.1492 10.1367 37.4826 9.96801C38.3384 9.53527 39.1992 9.11299 40.0635 8.69743C40.1541 8.65364 40.2446 8.60986 40.338 8.56475C42.1308 7.70727 42.1308 7.70727 42.6758 7.91007ZM7.12891 10.2538C7.10856 10.3068 7.08821 10.3598 7.06725 10.4144C6.1496 12.804 5.23094 15.1932 4.30482 17.5796C4.18782 17.8812 4.07094 18.1828 3.9541 18.4844C3.34619 20.0534 3.34619 20.0534 3.06167 20.7732C2.98754 20.9607 2.91375 21.1485 2.84009 21.3362C2.75677 21.5483 2.67275 21.7601 2.58785 21.9715C2.55312 22.0602 2.51839 22.1489 2.48261 22.2404C2.45299 22.3147 2.42338 22.3891 2.39287 22.4658C2.32053 22.6749 2.32053 22.6749 2.44141 22.9491C2.61013 23.051 2.61013 23.051 2.82281 23.1243C2.94408 23.1707 2.94408 23.1707 3.0678 23.2181C3.19978 23.2666 3.19978 23.2666 3.33443 23.3161C3.4244 23.3501 3.51438 23.3842 3.60708 23.4192C3.89563 23.5281 4.18475 23.6353 4.47388 23.7426C4.66777 23.8156 4.86162 23.8887 5.05543 23.9619C5.4113 24.0958 5.76719 24.2295 6.12366 24.3618C6.19537 24.3884 6.26707 24.4151 6.34094 24.4425C6.53688 24.5096 6.73203 24.5623 6.9336 24.6093C7.33975 23.7639 7.67384 22.896 8.00379 22.019C8.17292 21.5696 8.34333 21.1207 8.51364 20.6718C8.55039 20.5748 8.58713 20.4779 8.62499 20.378C9.09273 19.1457 9.56787 17.9162 10.0429 16.6866C10.1127 16.506 10.1824 16.3254 10.2521 16.1449C10.7718 14.799 11.2926 13.4536 11.8164 12.1093C11.6094 11.9022 11.4773 11.8435 11.2076 11.7394C11.1222 11.7062 11.0368 11.673 10.9489 11.6387C10.8565 11.6034 10.7641 11.5681 10.6689 11.5317C10.5743 11.4952 10.4797 11.4586 10.3822 11.4209C10.182 11.3437 9.98166 11.2667 9.78127 11.19C9.47368 11.0721 9.16645 10.9533 8.85926 10.8344C8.66498 10.7596 8.47069 10.6848 8.27637 10.6101C8.184 10.5744 8.09163 10.5387 7.99647 10.5019C7.91108 10.4693 7.8257 10.4367 7.73773 10.4031C7.66242 10.3742 7.58711 10.3453 7.50952 10.3155C7.32589 10.2435 7.32589 10.2435 7.12891 10.2538ZM41.2209 10.4793C41.0702 10.5519 41.0702 10.5519 40.9164 10.626C40.8082 10.6784 40.6999 10.7308 40.5884 10.7848C39.2983 11.4082 39.2983 11.4082 38.6864 11.6923C38.6009 11.7321 38.5155 11.7719 38.4275 11.8129C38.2675 11.8872 38.1074 11.961 37.9469 12.0343C37.5586 12.1905 37.5586 12.1905 37.3047 12.4999C37.3942 12.7416 37.3942 12.7416 37.5359 13.0183C37.5893 13.1278 37.6427 13.2373 37.6977 13.3501C37.758 13.4716 37.8182 13.5931 37.8784 13.7145C37.9406 13.8414 38.0028 13.9683 38.0648 14.0953C38.1976 14.3669 38.3309 14.6382 38.4644 14.9094C38.6702 15.328 38.8742 15.7473 39.0778 16.167C39.1115 16.2366 39.1452 16.3061 39.18 16.3778C39.2487 16.5194 39.3173 16.6609 39.3859 16.8025C39.5608 17.1631 39.7361 17.5235 39.9113 17.884C40.2894 18.6622 40.6674 19.4404 41.0451 20.2189C41.1427 20.42 41.2404 20.621 41.3382 20.822C41.6437 21.4506 41.9462 22.0803 42.2424 22.7134C42.2963 22.8278 42.3501 22.9422 42.4056 23.0601C42.5058 23.2735 42.6051 23.4872 42.7036 23.7014C42.7474 23.7946 42.7912 23.8877 42.8364 23.9837C42.874 24.0649 42.9116 24.1462 42.9504 24.2299C43.0595 24.4461 43.0595 24.4461 43.3594 24.5116C43.6004 24.4154 43.8243 24.3132 44.0552 24.1965C44.1237 24.1629 44.1923 24.1292 44.263 24.0945C44.4831 23.9863 44.7025 23.8767 44.9219 23.767C45.1381 23.66 45.3544 23.5532 45.5707 23.4465C45.7111 23.3773 45.8515 23.3079 45.9917 23.2384C46.5411 22.967 47.0957 22.7086 47.6563 22.4609C47.1341 21.2654 46.5764 20.0926 45.989 18.9278C45.6544 18.2635 45.3262 17.5969 45.0073 16.925C44.4316 15.712 43.8419 14.506 43.2519 13.3C42.7578 12.2888 42.2731 11.2736 41.7969 10.2538C41.5968 10.2538 41.3957 10.3947 41.2209 10.4793ZM32.6172 13.8671C32.8771 14.127 33.1091 14.3397 33.3923 14.5629C33.9838 15.0738 34.3279 15.7885 34.3983 16.5652C34.4225 17.5228 34.2109 18.3862 33.5938 19.1405C32.7757 19.9866 31.9174 20.3056 30.7606 20.3445C29.9037 20.2504 29.1954 19.8872 28.4607 19.4579C28.3169 19.377 28.3169 19.377 28.1702 19.2944C27.6328 18.9887 27.1167 18.6656 26.6087 18.3131C25.5998 17.5601 25.5998 17.5601 24.4213 17.3118C24.0991 17.482 23.8438 17.6674 23.5639 17.8976C23.1393 18.2173 22.6651 18.46 22.2009 18.7171C21.8993 18.8851 21.6005 19.0579 21.3013 19.2302C20.6965 19.5774 20.0899 19.9212 19.4824 20.2636C18.5962 20.7633 17.7127 21.2678 16.8298 21.7735C16.0159 22.2395 15.1992 22.7002 14.3799 23.1567C13.4794 23.6587 12.586 24.1719 11.6972 24.6944C11.2186 24.9755 10.7387 25.2534 10.2543 25.5244C10.1139 25.6033 10.1139 25.6033 9.97076 25.6837C9.79484 25.7822 9.61856 25.88 9.44185 25.9771C8.91351 26.2735 8.47693 26.5511 8.16651 27.0873C8.05368 27.5612 8.14691 27.9148 8.36182 28.3446C8.64904 28.6772 8.855 28.7865 9.27735 28.9062C10.0389 28.8959 10.6022 28.5614 11.261 28.2043C11.3777 28.1422 11.4944 28.0803 11.6112 28.0185C11.8533 27.8902 12.0951 27.7615 12.3367 27.6323C12.8889 27.3375 13.4454 27.0511 14.0015 26.7638C14.2178 26.6517 14.4341 26.5396 14.6503 26.4274C15.4003 26.0387 16.1504 25.6505 16.9006 25.2624C16.9631 25.2301 17.0256 25.1977 17.0899 25.1644C17.266 25.0733 17.4421 24.9823 17.6182 24.8912C17.719 24.839 17.8199 24.7869 17.9238 24.7332C18.3413 24.5179 18.6694 24.4513 19.1406 24.5116C19.4336 24.6459 19.4336 24.6459 19.6289 24.9023C19.6919 25.2376 19.7063 25.5458 19.6289 25.8788C19.3468 26.2067 19.041 26.3991 18.663 26.6048C18.6071 26.6354 18.5512 26.6661 18.4935 26.6977C18.3108 26.7977 18.1276 26.8967 17.9443 26.9958C17.8163 27.0656 17.6883 27.1355 17.5604 27.2055C16.866 27.5846 16.1697 27.96 15.4734 28.3356C15.0956 28.5397 14.7185 28.745 14.3415 28.9504C14.1521 29.053 13.9623 29.1547 13.7721 29.2556C13.4894 29.4057 13.2082 29.5585 12.9272 29.7118C12.8433 29.7555 12.7594 29.7991 12.673 29.8441C12.0884 30.1678 11.7203 30.5471 11.4258 31.1523C11.3672 31.5428 11.3864 31.7446 11.5418 32.1044C11.8003 32.4254 12.0627 32.5906 12.4703 32.6655C13.29 32.6802 13.8339 32.4571 14.5386 32.0556C14.6441 31.9981 14.7497 31.9405 14.8584 31.8813C15.0756 31.7626 15.2921 31.6429 15.5081 31.5221C15.7955 31.3614 16.0842 31.2035 16.3738 31.047C17.1164 30.6449 17.857 30.2406 18.5894 29.8202C18.6936 29.7614 18.7977 29.7026 18.905 29.642C19.1052 29.529 19.3045 29.4144 19.5027 29.2979C20.1108 28.9574 20.5905 28.8057 21.2891 28.9062C21.3857 28.9384 21.4824 28.9706 21.582 29.0038C21.67 29.2677 21.7013 29.4502 21.7102 29.724C21.7157 29.8339 21.7157 29.8339 21.7213 29.9461C21.6587 30.2918 21.5438 30.4163 21.2891 30.664C20.944 30.8827 20.5838 31.0687 20.2209 31.256C20.0082 31.3685 19.7956 31.4812 19.5831 31.594C19.4761 31.6506 19.3691 31.7072 19.2589 31.7656C18.5417 32.1497 17.8387 32.5588 17.135 32.9667C16.8946 33.1054 16.6532 33.2421 16.4116 33.3785C16.2613 33.4644 16.111 33.5504 15.9607 33.6364C15.8927 33.6744 15.8246 33.7124 15.7545 33.7515C15.2538 34.0409 14.913 34.321 14.7522 34.8998C14.7448 35.3282 14.8286 35.5655 15.0391 35.9374C15.4865 36.3521 15.7722 36.4577 16.3676 36.4499C16.7366 36.4117 17.0122 36.2669 17.3313 36.0858C17.3975 36.0502 17.4636 36.0146 17.5318 35.9779C17.7456 35.8623 17.9578 35.7442 18.1702 35.6261C18.318 35.5458 18.4659 35.4656 18.6139 35.3856C19.2344 35.0494 19.8515 34.7071 20.4687 34.3649C20.6318 34.2747 20.795 34.1848 20.9583 34.095C21.1531 33.9876 21.3472 33.879 21.5407 33.7693C22.0177 33.5046 22.3993 33.3168 22.9492 33.3007C23.2973 33.4189 23.4766 33.502 23.6755 33.8134C23.7493 34.1742 23.7344 34.4101 23.6328 34.7655C23.1427 35.2582 22.5252 35.5669 21.923 35.9028C21.6156 36.0744 21.3095 36.2484 21.0033 36.4223C20.9433 36.4563 20.8833 36.4904 20.8215 36.5255C20.3356 36.8018 19.8542 37.0841 19.3787 37.3778C19.2865 37.4337 19.2865 37.4337 19.1926 37.4906C18.8809 37.6858 18.6436 37.8636 18.457 38.1835C18.3586 38.6196 18.322 38.8527 18.4631 39.276C18.7441 39.684 19.0271 39.9824 19.5148 40.1131C20.5213 40.1897 21.7633 39.3381 22.6563 38.8976C22.8691 38.7934 23.0821 38.6893 23.295 38.5852C23.4358 38.5164 23.5767 38.4475 23.7174 38.3785C24.324 38.0814 24.933 37.7894 25.5432 37.4999C25.6285 37.4594 25.7138 37.4189 25.8017 37.3772C25.9901 37.2878 26.1786 37.1985 26.3672 37.1093C26.3638 37.0219 26.3604 36.9346 26.3569 36.8446C26.3315 35.7089 26.468 34.76 27.2461 33.8866C27.6386 33.5608 28.0292 33.2675 28.5156 33.1054C28.4894 33.0268 28.4633 32.9483 28.4363 32.8674C28.398 32.7525 28.3597 32.6377 28.3203 32.5195C28.2945 32.4556 28.2687 32.3918 28.2421 32.326C27.8928 31.417 27.9246 30.5402 28.2955 29.642C28.7374 28.7486 29.388 28.2606 30.2734 27.832C30.2262 27.6864 30.2262 27.6864 30.1781 27.5378C29.9365 26.6872 29.9477 25.632 30.3333 24.8283C30.816 24.0479 31.4289 23.4863 32.3017 23.1818C32.6318 23.1252 32.9609 23.1304 33.2947 23.1322C33.3977 23.1317 33.3977 23.1317 33.5028 23.1311C33.8709 23.1318 34.2125 23.1539 34.5703 23.2421C34.6035 23.1725 34.6368 23.1029 34.671 23.0312C35.1722 22.0409 35.7626 21.4621 36.8164 21.0937C37.118 21.0022 37.3925 20.98 37.7075 20.9777C37.7924 20.9763 37.8772 20.9749 37.9646 20.9735C38.4045 21.0048 38.8275 21.0977 39.2578 21.1913C38.6653 19.9269 38.0568 18.6703 37.4458 17.4148C36.8717 16.2351 36.3038 15.0528 35.7422 13.8671C34.7109 13.8671 33.6797 13.8671 32.6172 13.8671ZM36.6333 23.5778C36.4437 24.0097 36.395 24.2084 36.528 24.6753C36.7207 25.1685 37.0454 25.4964 37.4146 25.8666C37.5478 26.0043 37.6809 26.142 37.814 26.2798C37.878 26.3454 37.9421 26.411 38.0081 26.4786C38.225 26.7029 38.4341 26.9334 38.6414 27.1667C38.7078 27.2408 38.7743 27.315 38.8428 27.3914C38.963 27.5256 39.0832 27.6599 39.2033 27.7943C39.3571 27.9662 39.5119 28.1371 39.6668 28.308C39.7144 28.3615 39.762 28.4151 39.811 28.4702C40.1961 28.8929 40.5706 29.2605 41.156 29.3456C41.5748 29.2869 41.8626 29.1774 42.1875 28.9062C42.4784 28.4839 42.5578 28.1433 42.4805 27.6366C42.1827 27.022 41.7168 26.5589 41.2308 26.0898C41.0449 25.9075 40.8734 25.7225 40.7043 25.5248C40.3588 25.1223 39.9982 24.7346 39.6362 24.3468C39.5778 24.2841 39.5194 24.2214 39.4592 24.1568C38.7409 23.3208 38.7409 23.3208 37.7564 22.9125C37.2751 22.9813 36.9236 23.2004 36.6333 23.5778ZM32.1411 25.7079C31.9967 26.0609 31.9586 26.3818 32.0313 26.7577C32.239 27.1746 32.5374 27.4969 32.8552 27.832C32.9609 27.9449 33.0666 28.0578 33.1722 28.1707C33.2261 28.228 33.28 28.2853 33.3355 28.3443C33.586 28.6114 33.8339 28.8809 34.082 29.1503C34.1797 29.2561 34.2773 29.3619 34.375 29.4677C34.9609 30.1025 34.9609 30.1025 35.1076 30.2614C35.2046 30.3664 35.3017 30.4714 35.3989 30.5762C35.6542 30.8518 35.907 31.1292 36.1568 31.4098C36.209 31.4678 36.2612 31.5258 36.315 31.5856C36.4146 31.6965 36.5136 31.808 36.6118 31.9202C36.8839 32.2214 37.1045 32.4144 37.5 32.5195C38.0288 32.5002 38.3721 32.3834 38.7695 32.0312C39.0233 31.6281 39.077 31.3542 39.011 30.8784C38.8754 30.3911 38.5788 30.0973 38.2263 29.7485C38.1013 29.6198 37.9763 29.4912 37.8513 29.3624C37.7907 29.3008 37.73 29.2392 37.6675 29.1757C37.4546 28.9572 37.2508 28.7315 37.0483 28.5033C36.6693 28.0794 36.2846 27.661 35.8984 27.2437C35.648 26.9731 35.3981 26.7022 35.1494 26.43C35.0772 26.3511 35.0772 26.3511 35.0036 26.2705C34.8713 26.1257 34.7391 25.9807 34.6069 25.8357C34.0757 25.2461 34.0757 25.2461 33.3191 25.0671C32.7906 25.0748 32.4754 25.3068 32.1411 25.7079ZM30.0842 30.4382C29.9424 30.8805 29.9168 31.2 30.0781 31.6405C30.3355 32.0016 30.6443 32.3039 30.957 32.6171C31.1329 32.8077 31.3077 32.9988 31.4819 33.1908C31.5727 33.2896 31.6635 33.3882 31.7543 33.4869C31.9422 33.6913 32.1287 33.8968 32.3143 34.1033C33.1693 35.1789 33.1693 35.1789 34.3761 35.6673C34.8329 35.6135 35.1532 35.3814 35.437 35.0219C35.619 34.5974 35.6787 34.3164 35.5652 33.8622C35.3553 33.424 34.9943 33.1142 34.6451 32.7853C34.3718 32.5163 34.1228 32.2352 33.8722 31.9453C33.5713 31.6007 33.2593 31.2666 32.9468 30.9325C32.8841 30.8648 32.8214 30.7971 32.7568 30.7273C32.2222 30.1022 32.2222 30.1022 31.5189 29.7332C30.8688 29.7425 30.4791 29.8905 30.0842 30.4382ZM28.7109 35.2538C28.4523 35.6208 28.3242 35.9258 28.3081 36.3769C28.4559 36.8365 28.6918 37.1366 29.0039 37.4999C29.1114 37.6268 29.1114 37.6268 29.221 37.7563C29.7928 38.4506 29.7928 38.4506 30.5904 38.8118C31.1161 38.8127 31.4308 38.7454 31.8359 38.3788C32.1321 37.9681 32.1819 37.6258 32.1053 37.1371C31.9645 36.7128 31.6566 36.4439 31.3477 36.1327C31.1947 35.9581 31.0421 35.7832 30.8899 35.6078C30.5784 35.2504 30.3462 34.9978 29.8649 34.9315C29.4036 34.9291 29.0668 34.9285 28.7109 35.2538Z" fill="black"/>
<path d="M44.9219 20.8008C45.4667 21.1092 45.4667 21.1092 45.6055 21.3868C45.6593 21.8359 45.6658 22.1658 45.4285 22.5586C45.1537 22.8099 44.9662 22.8466 44.5984 22.8882C44.1284 22.8404 43.9619 22.7171 43.6523 22.3633C43.5487 22.0949 43.5206 21.8678 43.5547 21.5821C43.7117 21.268 43.8454 21.0694 44.1284 20.8619C44.4152 20.7775 44.6236 20.765 44.9219 20.8008Z" fill="black"/>
<path d="M22.6562 8.0078C23.0147 8.25426 23.121 8.41507 23.2422 8.83178C23.2422 9.24004 23.184 9.43238 22.9492 9.76562C22.6178 9.99909 22.4211 10.0576 22.0154 10.0647C21.6709 9.9582 21.491 9.84592 21.2776 9.55199C21.1113 9.2105 21.1376 8.97039 21.1914 8.59374C21.5746 7.99342 21.9735 7.90521 22.6562 8.0078Z" fill="black"/>
<path d="M5.62706 20.75C5.99218 20.8298 6.14189 20.9837 6.34765 21.2891C6.47789 21.6635 6.45188 21.8508 6.34765 22.2351C6.09979 22.6456 5.93104 22.736 5.46875 22.8516C5.10014 22.7953 4.85962 22.704 4.54712 22.5037C4.31228 22.1373 4.31364 21.8086 4.39453 21.3867C4.62809 20.8104 5.05185 20.7132 5.62706 20.75Z" fill="black"/>
</g>
<defs>
<clipPath id="clip0_34_15">
<rect width="50" height="50" fill="white"/>
</clipPath>
</defs>
</svg>
