<svg width="113" height="113" viewBox="0 0 113 113" fill="none" xmlns="http://www.w3.org/2000/svg">
<g opacity="0.8" clip-path="url(#clip0_35_29)">
<path d="M56.4172 -0.0688746C56.6419 -0.0683989 56.8666 -0.0679233 57.098 -0.0674332C60.3223 -0.0564708 63.4854 -0.0010971 66.6523 0.662204C66.8675 0.706053 67.0827 0.749902 67.3043 0.795079C75.9244 2.59825 83.9663 6.04689 90.9297 11.4767C91.1249 11.6252 91.32 11.7737 91.5211 11.9267C94.9612 14.5974 98.189 17.7531 100.861 21.1876C101.033 21.3993 101.204 21.6109 101.38 21.829C109.002 31.41 113.097 43.5775 113.07 55.7778C113.069 56.4266 113.074 57.0751 113.08 57.7239C113.09 60.6754 112.824 63.5216 112.338 66.4317C112.276 66.8081 112.276 66.8081 112.212 67.1922C110.662 75.8242 106.913 84.0305 101.523 90.9298C101.356 91.1443 101.188 91.3588 101.016 91.5798C98.2934 94.9741 95.2475 98.186 91.8125 100.861C91.606 101.03 91.3994 101.199 91.1866 101.373C84.1345 107.02 75.4904 110.664 66.6523 112.338C66.4737 112.374 66.2951 112.41 66.111 112.447C59.4808 113.743 51.8351 113.502 45.2441 112.117C44.908 112.048 44.908 112.048 44.5651 111.978C36.3674 110.236 28.6728 106.682 22.0703 101.524C21.8558 101.356 21.6413 101.188 21.4203 101.016C18.026 98.2935 14.8141 95.2476 12.1387 91.8126C11.8856 91.5028 11.8856 91.5028 11.6274 91.1867C5.98034 84.1346 2.33659 75.4905 0.662118 66.6524C0.625986 66.4738 0.589855 66.2952 0.552628 66.1111C-0.65453 59.9344 -0.627842 52.5066 0.662118 46.3477C0.705967 46.1326 0.749815 45.9174 0.794992 45.6958C3.02122 35.0532 7.88482 25.21 15.4973 17.3979C15.8889 16.996 16.2768 16.5909 16.6648 16.1856C18.2322 14.5656 19.8685 13.1158 21.6765 11.7704C22.0767 11.4719 22.4727 11.1686 22.8686 10.8646C24.724 9.45498 26.6533 8.23194 28.6854 7.09331C29.0966 6.86227 29.5044 6.62631 29.9122 6.38928C37.99 1.85005 47.2275 -0.103867 56.4172 -0.0688746ZM21.9108 33.309C20.7738 34.7505 20.2037 36.0601 20.2162 37.9051C20.2147 38.0703 20.2132 38.2356 20.2116 38.4059C20.2074 38.9562 20.208 39.5063 20.2085 40.0566C20.2065 40.4526 20.2043 40.8486 20.2018 41.2446C20.1959 42.3181 20.1944 43.3916 20.194 44.465C20.1935 45.1366 20.1921 45.8082 20.1903 46.4798C20.1842 48.8254 20.1815 51.171 20.182 53.5167C20.1824 55.6987 20.1754 57.8807 20.165 60.0627C20.1563 61.9395 20.1528 63.8163 20.1532 65.6932C20.1533 66.8126 20.1515 67.9319 20.1444 69.0513C20.138 70.1051 20.138 71.1588 20.1428 72.2126C20.1435 72.5976 20.142 72.9827 20.1379 73.3677C20.113 75.9196 20.3167 78.0199 22.1311 80.0018C23.6391 81.4504 25.2391 82.1275 27.3377 82.1307C27.5492 82.1315 27.7607 82.1324 27.9786 82.1332C28.3245 82.1329 28.3245 82.1329 28.6773 82.1326C28.9236 82.1333 29.17 82.134 29.4238 82.1346C30.2509 82.1365 31.078 82.1369 31.9051 82.1372C32.4975 82.1382 33.0899 82.1393 33.6822 82.1405C35.2928 82.1435 36.9035 82.1449 38.5141 82.1458C39.5202 82.1464 40.5264 82.1474 41.5326 82.1484C44.3197 82.1511 47.1068 82.1533 49.8939 82.1541C50.0722 82.1541 50.2506 82.1542 50.4343 82.1542C50.613 82.1543 50.7917 82.1543 50.9759 82.1544C51.3381 82.1545 51.7002 82.1546 52.0624 82.1547C52.242 82.1547 52.4217 82.1548 52.6068 82.1548C55.5167 82.1557 58.4266 82.1595 61.3365 82.1647C64.3258 82.1699 67.3151 82.1727 70.3044 82.1729C71.9821 82.1731 73.6598 82.1744 75.3374 82.1784C76.7662 82.1818 78.195 82.1829 79.6237 82.1811C80.3522 82.1802 81.0806 82.1808 81.809 82.1835C82.6002 82.1863 83.3914 82.1851 84.1826 82.1828C84.4107 82.1845 84.6388 82.1863 84.8738 82.1881C87.1344 82.1728 89.042 81.7034 90.709 80.1153C92.1141 78.5764 92.7981 76.9462 92.7839 74.8563C92.7854 74.6917 92.7869 74.5271 92.7884 74.3576C92.7926 73.811 92.792 73.2646 92.7915 72.7181C92.7935 72.3242 92.7957 71.9304 92.7982 71.5365C92.8041 70.4699 92.8056 69.4033 92.8061 68.3366C92.8065 67.6692 92.808 67.0018 92.8097 66.3344C92.8158 64.0031 92.8185 61.6718 92.818 59.3405C92.8176 57.1721 92.8246 55.0038 92.8351 52.8354C92.8437 50.9698 92.8473 49.1043 92.8468 47.2387C92.8467 46.1262 92.8485 45.0138 92.8556 43.9013C92.862 42.8541 92.862 41.8072 92.8572 40.7601C92.8565 40.3775 92.8581 39.995 92.8621 39.6124C92.8871 37.0678 92.6776 34.9743 90.8689 32.9983C89.3608 31.5499 87.7609 30.8727 85.6623 30.8695C85.4508 30.8687 85.2393 30.8678 85.0214 30.867C84.7908 30.8671 84.5603 30.8673 84.3227 30.8675C83.9532 30.8666 83.9532 30.8666 83.5763 30.8655C82.7491 30.8636 81.922 30.8633 81.0949 30.863C80.5025 30.8619 79.9102 30.8608 79.3178 30.8596C77.7072 30.8567 76.0966 30.8553 74.4859 30.8543C73.4798 30.8537 72.4736 30.8528 71.4675 30.8518C68.6803 30.8491 65.8932 30.8468 63.1061 30.8461C62.9278 30.8461 62.7495 30.846 62.5657 30.846C62.387 30.8459 62.2083 30.8459 62.0241 30.8458C61.662 30.8457 61.2998 30.8456 60.9376 30.8455C60.758 30.8455 60.5783 30.8454 60.3932 30.8454C57.4833 30.8445 54.5734 30.8406 51.6636 30.8355C48.6742 30.8303 45.6849 30.8275 42.6956 30.8273C41.0179 30.8271 39.3403 30.8258 37.6626 30.8218C36.2338 30.8184 34.805 30.8173 33.3763 30.8191C32.6478 30.8199 31.9194 30.8194 31.191 30.8166C30.3998 30.8138 29.6087 30.8151 28.8174 30.8174C28.4753 30.8148 28.4753 30.8148 28.1262 30.812C25.6426 30.8289 23.6023 31.4219 21.9108 33.309Z" fill="black"/>
<path d="M25.8223 39.5059C26.4326 39.8029 26.94 40.1062 27.4629 40.5404C27.6046 40.6571 27.7462 40.7737 27.8922 40.8939C28.0421 41.0185 28.1921 41.1431 28.3465 41.2715C29.4419 42.1724 30.5422 43.061 31.6709 43.9199C32.9103 44.8648 34.1191 45.843 35.3254 46.8296C36.4574 47.753 37.6096 48.6441 38.7713 49.5297C39.6001 50.1672 40.4076 50.8301 41.2163 51.4928C42.4259 52.4835 43.6523 53.4463 44.8993 54.3895C46.1797 55.3587 47.4308 56.3554 48.665 57.3828C49.9465 58.4488 51.2446 59.4876 52.5687 60.5002C52.7221 60.6177 52.8754 60.7352 53.0334 60.8563C54.6054 62.2209 54.6054 62.2209 56.5 62.79C56.7048 62.7935 56.7048 62.7935 56.9138 62.7969C58.1323 62.4923 59.1441 61.4768 60.114 60.7072C60.2461 60.6029 60.3783 60.4987 60.5144 60.3912C61.695 59.4567 62.8613 58.5047 64.0275 57.5523C65.1562 56.633 66.305 55.7453 67.4627 54.8628C68.2915 54.2253 69.099 53.5625 69.9077 52.8998C71.1173 51.909 72.3437 50.9463 73.5907 50.0031C75.0337 48.9109 76.4348 47.7772 77.8254 46.6193C79.0483 45.6054 80.3017 44.6383 81.5701 43.6822C82.9331 42.6492 84.2499 41.5644 85.5543 40.4585C85.7028 40.3339 85.8514 40.2093 86.0044 40.0809C86.1354 39.9697 86.2664 39.8585 86.4013 39.744C86.7363 39.5059 86.7363 39.5059 87.1777 39.5059C87.1932 44.2137 87.2048 48.9215 87.212 53.6294C87.2154 55.8152 87.2201 58.0011 87.2277 60.1869C87.2343 62.0917 87.2385 63.9964 87.24 65.9011C87.2409 66.9101 87.2429 67.919 87.2477 68.9279C87.2522 69.877 87.2536 70.826 87.2526 71.775C87.2528 72.1239 87.2541 72.4728 87.2566 72.8216C87.2599 73.2969 87.2592 73.7721 87.2573 74.2474C87.2579 74.5137 87.2586 74.78 87.2592 75.0544C87.1777 75.7012 87.1777 75.7012 86.9051 76.0674C86.4046 76.4476 86.1235 76.4462 85.4985 76.4466C85.2884 76.4483 85.0784 76.4501 84.862 76.4518C84.6308 76.4504 84.3996 76.4489 84.1614 76.4474C83.7936 76.4489 83.7936 76.4489 83.4183 76.4505C82.5922 76.4531 81.7663 76.451 80.9403 76.449C80.3498 76.4499 79.7594 76.451 79.1689 76.4525C77.7291 76.4554 76.2893 76.4548 74.8494 76.4529C73.6795 76.4514 72.5097 76.4512 71.3398 76.4519C71.0903 76.452 71.0903 76.452 70.8358 76.4522C70.4979 76.4524 70.16 76.4526 69.8222 76.4528C66.652 76.4547 63.4818 76.4525 60.3115 76.449C57.5897 76.446 54.8679 76.4465 52.1461 76.4496C48.9874 76.4531 45.8288 76.4545 42.6701 76.4525C42.3335 76.4523 41.9968 76.4521 41.6602 76.4519C41.4946 76.4518 41.3289 76.4517 41.1582 76.4516C39.9894 76.451 38.8205 76.452 37.6517 76.4535C36.2278 76.4554 34.8039 76.4549 33.38 76.4514C32.6531 76.4496 31.9262 76.4493 31.1993 76.4511C30.4124 76.4529 29.6255 76.4507 28.8385 76.4474C28.6074 76.4488 28.3762 76.4503 28.1379 76.4518C27.9279 76.4501 27.7179 76.4484 27.5015 76.4466C27.3198 76.4465 27.138 76.4464 26.9508 76.4463C26.3681 76.3426 26.1725 76.1718 25.8223 75.7012C25.7408 75.0544 25.7408 75.0544 25.7426 74.2474C25.7421 74.0991 25.7415 73.9507 25.7409 73.7978C25.7398 73.2996 25.7435 72.8016 25.7471 72.3034C25.7473 71.9467 25.7472 71.59 25.7468 71.2333C25.7466 70.2639 25.7505 69.2945 25.7551 68.3252C25.7593 67.3125 25.7596 66.2998 25.7604 65.2871C25.7625 63.369 25.7679 61.4509 25.7746 59.5327C25.782 57.3492 25.7856 55.1657 25.7889 52.9822C25.7959 48.49 25.8075 43.998 25.8223 39.5059Z" fill="black"/>
<path d="M31.5605 36.6367C48.0206 36.6367 64.4806 36.6367 81.4395 36.6367C79.5681 38.5081 77.4833 40.1187 75.4003 41.7457C74.5758 42.3904 73.7587 43.0441 72.9424 43.6992C71.8854 44.5473 70.8236 45.3888 69.756 46.2235C68.6323 47.1023 67.5226 47.997 66.4178 48.8995C65.1426 49.9411 63.8499 50.9527 62.54 51.9506C61.512 52.7413 60.5115 53.5666 59.511 54.3917C59.0985 54.7301 58.6823 55.0633 58.2656 55.3965C58.1304 55.5107 57.9952 55.6249 57.8559 55.7425C57.457 56.0612 57.457 56.0612 56.7207 56.5C55.6136 56.3707 54.6923 55.3417 53.8654 54.6378C53.5288 54.3559 53.192 54.0743 52.8549 53.7929C52.6878 53.6531 52.5207 53.5133 52.3485 53.3692C51.6679 52.8052 50.9757 52.2572 50.2789 51.7135C50.1539 51.6158 50.0288 51.518 49.9 51.4173C49.5254 51.1249 49.1504 50.8329 48.7754 50.541C46.9857 49.1451 45.2124 47.7318 43.4545 46.296C42.3259 45.377 41.1772 44.4894 40.0197 43.607C39.0404 42.8537 38.0891 42.066 37.1341 41.2824C35.8467 40.2313 34.5288 39.2232 33.1953 38.2314C33.0456 38.1188 32.8959 38.0062 32.7417 37.8902C32.6093 37.7918 32.4769 37.6933 32.3404 37.5918C32.002 37.2988 32.002 37.2988 31.5605 36.6367Z" fill="black"/>
</g>
<defs>
<clipPath id="clip0_35_29">
<rect width="113" height="113" fill="white"/>
</clipPath>
</defs>
</svg>
