<svg width="50" height="50" viewBox="0 0 50 50" fill="none" xmlns="http://www.w3.org/2000/svg">
<path opacity="0.5" d="M24.9087 0.000366648C25.0055 0.000576383 25.1023 0.000786118 25.202 0.00100221C26.6481 0.00602695 28.0642 0.0379886 29.4868 0.322733C29.6319 0.351735 29.6319 0.351735 29.7799 0.381323C32.6685 0.980632 35.453 1.98969 37.9724 3.53423C38.666 2.96396 39.2841 2.32541 39.9115 1.68443C39.9952 1.59987 40.0788 1.51532 40.165 1.42821C40.2404 1.3514 40.3157 1.27459 40.3933 1.19546C40.8209 0.810201 41.1686 0.767043 41.7302 0.777771C42.0821 0.823814 42.2901 0.971584 42.5566 1.1986C42.6411 1.26182 42.6411 1.26182 42.7273 1.32633C43.0658 1.7823 43.0852 2.42347 43.1273 2.97047C43.1335 3.04496 43.1398 3.11945 43.1462 3.1962C43.1591 3.35296 43.1717 3.50974 43.184 3.66655C43.2026 3.90364 43.2224 4.14061 43.2424 4.37759C43.3048 5.13647 43.3539 5.88629 43.3369 6.64841C43.4613 6.64578 43.5858 6.64314 43.7141 6.64043C44.4262 6.6408 45.1338 6.69926 45.8431 6.75711C46.0802 6.77615 46.3173 6.79355 46.5544 6.81092C46.7075 6.82318 46.8605 6.83553 47.0135 6.84799C47.0832 6.85287 47.153 6.85775 47.2248 6.86277C47.8523 6.91724 48.4679 7.0337 48.8903 7.53036C49.1368 7.88058 49.2074 8.05183 49.2195 8.47312C49.2232 8.55492 49.2268 8.63671 49.2306 8.72098C49.1373 9.31163 48.6618 9.73219 48.2487 10.1359C48.1973 10.1869 48.1459 10.2379 48.093 10.2905C47.9305 10.4515 47.7673 10.6119 47.6041 10.7723C47.493 10.8821 47.382 10.9919 47.2711 11.1019C47.0006 11.3696 46.7295 11.6368 46.458 11.9036C46.8473 12.6841 46.8473 12.6841 47.2437 13.4611C49.0879 17.0584 50.0152 20.8612 49.9998 24.9016C49.9996 25.001 49.9994 25.1003 49.9992 25.2027C49.9943 26.6277 49.964 28.0204 49.6767 29.4208C49.6579 29.5178 49.639 29.6148 49.6196 29.7147C48.8277 33.7134 47.1335 37.3234 44.6048 40.5151C44.5256 40.6161 44.4464 40.7171 44.3648 40.8211C43.1295 42.3356 41.7103 43.756 40.1182 44.8944C39.987 44.9907 39.8558 45.087 39.7246 45.1833C36.6711 47.4022 33.2029 48.8833 29.4868 49.5657C29.4087 49.5813 29.3306 49.597 29.2501 49.6131C26.5126 50.1474 23.2443 50.1252 20.5134 49.5657C20.4147 49.5464 20.3159 49.527 20.2142 49.5071C16.2061 48.7074 12.6036 47.0101 9.39432 44.5052C9.34173 44.4644 9.28915 44.4236 9.23497 44.3816C7.70807 43.1843 6.26175 41.7608 5.12316 40.1895C4.99994 40.0214 4.87259 39.8571 4.74421 39.6929C2.52593 36.821 1.12224 33.32 0.396616 29.7858C0.374515 29.6792 0.374515 29.6792 0.351967 29.5705C0.0562264 28.0431 -0.0055459 26.5325 0.000375586 24.9807C0.000585791 24.8816 0.000795996 24.7825 0.00101257 24.6804C0.00586042 23.2572 0.0365049 21.8662 0.323464 20.4676C0.351753 20.3221 0.351753 20.3221 0.380614 20.1737C1.12468 16.4164 2.65725 12.898 5.0052 9.85991C5.0993 9.73797 5.0993 9.73797 5.19531 9.61357C6.57085 7.86631 8.16595 6.19359 9.97954 4.89668C10.0324 4.85855 10.0852 4.82041 10.1397 4.78112C13.155 2.61253 16.5077 1.14284 20.1477 0.395721C20.2189 0.381005 20.2902 0.366288 20.3636 0.351125C21.8759 0.059769 23.3722 -0.00562665 24.9087 0.000366648ZM18.5627 3.9235C18.4405 3.95926 18.3183 3.99501 18.1924 4.03185C12.7618 5.72367 8.15977 9.75392 5.49288 14.7258C4.90225 15.8587 4.4199 17.0138 4.02983 18.2293C4.00824 18.2946 3.98665 18.36 3.9644 18.4274C3.39886 20.1504 3.04868 21.9757 3.03123 23.7912C3.03028 23.8739 3.02933 23.9566 3.02835 24.0417C3.01137 25.9018 3.03726 27.6938 3.44462 29.5182C3.47201 29.6429 3.47201 29.6429 3.49996 29.7702C3.62221 30.3096 3.76842 30.839 3.9323 31.3672C3.9675 31.4818 3.9675 31.4818 4.0034 31.5986C5.03173 34.878 6.84339 37.8026 9.23897 40.2582C9.37713 40.4001 9.5135 40.5438 9.64959 40.6877C10.2902 41.352 10.9973 41.9104 11.7352 42.4615C11.7905 42.5031 11.8459 42.5448 11.9029 42.5877C16.5142 46.0409 22.3622 47.4957 28.0664 46.7191C32.7278 46.0275 36.9729 43.9483 40.3484 40.6701C40.4906 40.5323 40.6346 40.3962 40.7788 40.2604C41.4446 39.6213 42.0043 38.9157 42.5566 38.1795C42.5983 38.1243 42.6401 38.0691 42.6831 38.0122C44.7823 35.2214 46.2368 31.9076 46.7506 28.4477C46.7759 28.2948 46.7759 28.2948 46.8018 28.1388C46.9631 27.0843 46.9805 26.0455 46.9762 24.9807C46.976 24.8902 46.9758 24.7997 46.9757 24.7064C46.9713 23.4019 46.9323 22.1357 46.6531 20.8569C46.6369 20.7766 46.6207 20.6962 46.604 20.6135C46.1519 18.392 45.3346 16.3544 44.3122 14.3365C43.9353 14.2969 43.9353 14.2969 43.7407 14.4764C43.6799 14.5404 43.619 14.6044 43.5563 14.6703C43.4889 14.7397 43.4215 14.8091 43.3521 14.8805C43.248 14.9906 43.248 14.9906 43.1418 15.1029C43.0041 15.2471 42.8659 15.3908 42.7273 15.534C42.6664 15.5982 42.6056 15.6624 42.5429 15.7286C42.0021 16.2207 41.3946 16.113 40.7034 16.0883C40.1827 16.0626 39.6628 16.0282 39.1428 15.9909C39.1749 16.0456 39.2069 16.1003 39.24 16.1567C40.102 17.6765 40.7638 19.2606 41.1911 20.9542C41.2116 21.0314 41.2321 21.1087 41.2532 21.1883C41.877 23.6168 41.8328 26.5163 41.1911 28.9343C41.1605 29.0554 41.1605 29.0554 41.1293 29.1791C40.0199 33.504 37.174 37.0719 33.3699 39.3595C32.1869 40.0489 30.9401 40.5503 29.627 40.9348C29.5512 40.9572 29.4754 40.9796 29.3973 41.0027C27.9548 41.4017 26.5165 41.5426 25.0245 41.5309C24.9439 41.5306 24.8634 41.5303 24.7804 41.53C23.4862 41.523 22.2569 41.4308 21.0011 41.099C20.9201 41.0787 20.8392 41.0583 20.7557 41.0374C16.4211 39.9304 12.8452 37.0909 10.5526 33.2953C9.86156 32.115 9.3591 30.8709 8.9737 29.5607C8.95122 29.4851 8.92875 29.4095 8.90559 29.3316C8.52543 27.9631 8.36951 26.5943 8.38081 25.1773C8.38238 24.9442 8.38081 24.7113 8.37895 24.4782C8.37695 23.069 8.56794 21.6935 8.9676 20.3399C8.99228 20.2558 9.01696 20.1717 9.04239 20.085C9.83781 17.4795 11.2321 15.2398 13.1007 13.266C13.1685 13.1933 13.2362 13.1205 13.306 13.0456C15.8553 10.3954 19.8539 8.54797 23.5306 8.38291C23.67 8.38036 23.8095 8.3784 23.9489 8.37695C24.0244 8.37599 24.0999 8.37504 24.1777 8.37406C25.8212 8.35759 27.3995 8.36677 28.9991 8.78941C29.08 8.80975 29.161 8.83009 29.2444 8.85104C30.9109 9.27662 32.4895 9.96714 33.9734 10.8331C33.9664 10.7435 33.9593 10.6539 33.9521 10.5617C33.905 9.92089 33.8639 9.27963 33.8454 8.63735C33.8417 8.53084 33.8381 8.42434 33.8343 8.3146C33.9313 7.6052 34.5314 7.13802 35.0219 6.66058C35.124 6.56009 35.124 6.56009 35.228 6.45758C35.3946 6.29366 35.5616 6.13021 35.7291 5.96718C35.6631 5.67155 35.6631 5.67155 35.461 5.55926C30.1571 2.92856 24.2736 2.20571 18.5627 3.9235ZM40.1182 5.77255C37.9572 7.36264 37.9572 7.36264 36.6689 9.57722C36.5701 10.5232 36.6732 11.9526 37.2114 12.7602C38.0713 13.3307 39.6565 13.4479 40.6503 13.2526C42.1046 12.7611 43.289 11.0148 44.2147 9.85991C44.1825 9.79568 44.1503 9.73145 44.1172 9.66527C43.9014 9.62276 43.9014 9.62276 43.6409 9.61053C43.5431 9.60325 43.4453 9.59598 43.3445 9.58848C43.2414 9.58171 43.1383 9.57493 43.0321 9.56795C41.4213 9.45974 41.4213 9.45974 40.9168 9.05703C40.3782 8.38153 40.4421 7.5054 40.3902 6.68015C40.3829 6.57772 40.3756 6.47529 40.3681 6.36976C40.3622 6.27614 40.3563 6.18251 40.3502 6.08605C40.338 6.01471 40.3258 5.94337 40.3133 5.86987C40.2489 5.83775 40.1845 5.80564 40.1182 5.77255ZM16.2218 14.4339C16.1724 14.4756 16.1229 14.5173 16.0719 14.5604C13.8373 16.4664 12.4352 18.9281 11.6376 21.7327C11.6186 21.7994 11.5996 21.8661 11.58 21.9349C11.0811 23.8015 11.1089 26.3009 11.6376 28.1557C11.6715 28.2746 11.6715 28.2746 11.7059 28.3959C12.8101 32.1554 15.1936 35.1633 18.6249 37.0851C21.0173 38.3687 23.8682 38.8891 26.5607 38.5687C26.6263 38.5611 26.6919 38.5535 26.7595 38.5456C30.2475 38.1074 33.5126 36.2151 35.7291 33.5082C38.0913 30.4011 39.1023 26.6698 38.5885 22.7861C38.22 20.5419 37.2562 18.1859 35.7291 16.4775C35.2032 16.9153 34.7153 17.3788 34.2329 17.8636C34.1581 17.9383 34.0833 18.0131 34.0062 18.0902C33.7695 18.3269 33.5331 18.5639 33.2968 18.801C33.1354 18.9625 32.9741 19.1239 32.8127 19.2853C32.4191 19.6791 32.0257 20.0733 31.6325 20.4676C31.7754 20.8299 31.936 21.1764 32.108 21.5259C32.9208 23.3128 33.1637 25.4361 32.5485 27.3338C31.6459 29.5651 30.3103 31.2101 28.0759 32.1978C26.1973 32.948 23.9575 33.0566 22.0751 32.2581C20.133 31.4015 18.5754 30.0845 17.7302 28.0953C17.3402 27.0412 17.159 26.1043 17.1606 24.9807C17.1609 24.8131 17.1609 24.8131 17.1611 24.642C17.1736 23.7773 17.278 23.033 17.5873 22.2193C17.6166 22.1398 17.6459 22.0602 17.6761 21.9783C17.7658 21.7591 17.867 21.5529 17.9775 21.3434C18.0233 21.2539 18.069 21.1643 18.1162 21.072C19.1642 19.145 20.8676 17.9522 22.9537 17.3336C24.9243 16.808 27.0205 17.0902 28.7772 18.0865C28.9829 18.2038 28.9829 18.2038 29.2917 18.3266C29.6223 18.2131 29.8319 18.0059 30.0753 17.7614C30.1514 17.6855 30.2276 17.6095 30.306 17.5312C30.3872 17.4492 30.4684 17.3672 30.552 17.2827C30.6359 17.1987 30.7198 17.1148 30.8062 17.0282C31.074 16.76 31.3411 16.491 31.6082 16.2221C31.7896 16.0401 31.9711 15.8581 32.1526 15.6762C32.5975 15.2301 33.0418 14.7836 33.4857 14.3365C31.3139 12.1481 28.0731 11.4028 25.0976 11.2224C21.8574 11.2224 18.6928 12.3453 16.2218 14.4339ZM21.4888 21.4408C20.4593 22.5397 20.0438 23.7188 20.0662 25.1972C20.1329 26.6549 20.7803 27.7987 21.8401 28.7799C23.079 29.7535 24.4423 29.9886 25.9755 29.8101C27.2152 29.598 28.2817 28.81 29.0478 27.8394C29.8578 26.6118 30.1278 25.2172 29.8365 23.7702C29.7482 23.4358 29.6303 23.1177 29.4868 22.8032C29.2012 22.9317 29.0014 23.0695 28.7825 23.2923C28.7236 23.3517 28.6646 23.4111 28.6039 23.4724C28.5413 23.5365 28.4787 23.6005 28.4142 23.6665C28.3488 23.7325 28.2834 23.7985 28.216 23.8665C27.9367 24.1484 27.6585 24.4315 27.3802 24.7144C27.1766 24.9211 26.9725 25.1271 26.7683 25.3331C26.7059 25.397 26.6435 25.4609 26.5792 25.5267C25.8401 26.2722 25.8401 26.2722 25.2988 26.3454C25.2002 26.3447 25.1017 26.3439 25.0001 26.3432C24.9015 26.3439 24.8029 26.3447 24.7014 26.3454C24.2634 26.2862 24.0217 26.138 23.7538 25.7885C23.6196 25.4953 23.5861 25.2841 23.5797 24.9625C23.5756 24.8675 23.5714 24.7725 23.5671 24.6747C23.7243 23.942 24.3949 23.3811 24.917 22.8739C24.9812 22.8107 25.0453 22.7474 25.1113 22.6823C25.3136 22.4829 25.5164 22.2841 25.7194 22.0855C25.989 21.8217 26.2579 21.5573 26.5264 21.2925C26.5885 21.2321 26.6507 21.1717 26.7148 21.1094C26.8622 20.964 27.0046 20.8136 27.1459 20.6622C27.1459 20.598 27.1459 20.5338 27.1459 20.4676C25.0798 19.7061 23.1741 19.9458 21.4888 21.4408Z" fill="black"/>
</svg>
