<svg width="50" height="50" viewBox="0 0 50 50" fill="none" xmlns="http://www.w3.org/2000/svg">
<g opacity="0.5">
<path d="M6.38052 34.3541C6.44676 34.354 6.51301 34.3537 6.57926 34.3534C6.76048 34.3528 6.94169 34.3532 7.12291 34.3538C7.32038 34.3543 7.51784 34.3538 7.71531 34.3534C8.06113 34.3529 8.40694 34.3529 8.75276 34.3534C9.267 34.3542 9.78124 34.3539 10.2955 34.3535C11.2139 34.3528 12.1324 34.353 13.0509 34.3536C13.8546 34.3542 14.6584 34.3544 15.4621 34.3543C15.5421 34.3543 15.5421 34.3543 15.6237 34.3543C15.8401 34.3543 16.0565 34.3542 16.2729 34.3542C16.8778 34.3541 17.4828 34.3541 18.0877 34.3541C18.1153 34.3541 18.1428 34.3541 18.1712 34.3541C19.0487 34.3541 19.9263 34.3544 20.8038 34.3548C20.8323 34.3548 20.8607 34.3548 20.89 34.3549C21.3521 34.3551 21.8142 34.3553 22.2763 34.3556C24.109 34.3566 25.9417 34.3568 27.7744 34.3564C27.8902 34.3564 28.006 34.3563 28.1219 34.3563C28.1505 34.3563 28.1791 34.3563 28.2087 34.3563C28.5258 34.3562 28.843 34.3561 29.1601 34.3561C29.1885 34.3561 29.217 34.3561 29.2463 34.3561C30.7821 34.3557 32.318 34.356 33.8538 34.3564C34.0159 34.3565 34.1781 34.3565 34.3403 34.3566C34.4478 34.3566 34.5554 34.3566 34.663 34.3567C35.4663 34.3569 36.2695 34.3569 37.0728 34.3567C37.9861 34.3565 38.8994 34.3567 39.8127 34.3575C40.3239 34.358 40.835 34.3581 41.3462 34.3577C41.6876 34.3575 42.029 34.3578 42.3704 34.3584C42.565 34.3587 42.7595 34.3588 42.9541 34.3584C43.1312 34.3581 43.3084 34.3583 43.4855 34.3589C43.549 34.3591 43.6126 34.359 43.6761 34.3587C44.1909 34.3564 44.6753 34.4113 45.1354 34.6562C45.1636 34.6709 45.1918 34.6855 45.2209 34.7006C45.4451 34.82 45.6453 34.9532 45.8333 35.125C45.8679 35.1562 45.9025 35.1875 45.9381 35.2197C46.4867 35.7404 46.8603 36.4486 46.8931 37.213C46.8941 37.2991 46.8941 37.3852 46.8932 37.4713C46.8928 37.5169 46.8925 37.5624 46.8921 37.6093C46.8736 38.4759 46.534 39.1957 45.9167 39.7916C45.8872 39.8224 45.8578 39.8531 45.8275 39.8847C45.6463 40.0631 45.4482 40.1861 45.224 40.3021C45.1989 40.3153 45.1738 40.3285 45.1479 40.3421C44.6425 40.589 44.128 40.6497 43.5736 40.646C43.5074 40.6461 43.4412 40.6464 43.375 40.6467C43.1941 40.6473 43.0132 40.6469 42.8323 40.6464C42.6351 40.646 42.4379 40.6465 42.2407 40.6469C41.8955 40.6475 41.5502 40.6475 41.205 40.6471C40.6915 40.6465 40.1781 40.6468 39.6647 40.6473C38.7477 40.6482 37.8306 40.6481 36.9136 40.6476C36.1111 40.6472 35.3085 40.6471 34.506 40.6473C34.4528 40.6473 34.3995 40.6473 34.3447 40.6473C34.1286 40.6474 33.9124 40.6474 33.6963 40.6475C32.1881 40.6479 30.6799 40.6479 29.1717 40.6473C29.1291 40.6473 29.1291 40.6473 29.0856 40.6473C28.6242 40.6471 28.1628 40.6469 27.7014 40.6467C25.8715 40.6459 24.0417 40.6459 22.2118 40.6467C21.7506 40.6469 21.2894 40.6471 20.8283 40.6473C20.7857 40.6473 20.7857 40.6473 20.7422 40.6473C19.2085 40.648 17.6748 40.6478 16.1412 40.6474C15.9254 40.6474 15.7097 40.6473 15.494 40.6473C15.4409 40.6473 15.3877 40.6473 15.333 40.6472C14.531 40.6471 13.729 40.6473 12.927 40.6477C12.0151 40.6482 11.1031 40.6481 10.1912 40.6471C9.68088 40.6467 9.17055 40.6466 8.66022 40.6473C8.31928 40.6476 7.97834 40.6474 7.63739 40.6467C7.44318 40.6463 7.24897 40.6461 7.05476 40.6467C6.87781 40.6473 6.70088 40.647 6.52393 40.6462C6.46058 40.646 6.39722 40.6462 6.33387 40.6466C5.78962 40.65 5.27228 40.5627 4.78385 40.3099C4.75641 40.2959 4.72896 40.2819 4.70068 40.2675C4.41017 40.1113 4.18596 39.9024 3.95833 39.6666C3.92761 39.6372 3.89689 39.6078 3.86523 39.5775C3.59678 39.3048 3.44068 38.9728 3.29167 38.625C3.27255 38.5806 3.25342 38.5361 3.23372 38.4904C3.00852 37.852 3.02528 36.9968 3.29167 36.375C3.30263 36.3485 3.31359 36.322 3.32489 36.2947C3.50844 35.8601 3.74529 35.5346 4.08333 35.2083C4.11277 35.1776 4.1422 35.1469 4.17253 35.1152C4.35449 34.936 4.55314 34.8137 4.77865 34.6979C4.81681 34.6781 4.81681 34.6781 4.85574 34.6578C5.35222 34.4166 5.8359 34.3504 6.38052 34.3541Z" fill="black"/>
<path d="M6.38052 21.8541C6.44676 21.854 6.51301 21.8537 6.57926 21.8534C6.76048 21.8528 6.94169 21.8532 7.12291 21.8538C7.32038 21.8543 7.51784 21.8538 7.71531 21.8534C8.06113 21.8529 8.40694 21.8529 8.75276 21.8534C9.267 21.8542 9.78124 21.8539 10.2955 21.8535C11.2139 21.8528 12.1324 21.853 13.0509 21.8536C13.8546 21.8542 14.6584 21.8544 15.4621 21.8543C15.5421 21.8543 15.5421 21.8543 15.6237 21.8543C15.8401 21.8543 16.0565 21.8542 16.2729 21.8542C16.8778 21.8541 17.4828 21.8541 18.0877 21.8541C18.1153 21.8541 18.1428 21.8541 18.1712 21.8541C19.0487 21.8541 19.9263 21.8544 20.8038 21.8548C20.8323 21.8548 20.8607 21.8548 20.89 21.8549C21.3521 21.8551 21.8142 21.8553 22.2763 21.8556C24.109 21.8566 25.9417 21.8568 27.7744 21.8564C27.8902 21.8564 28.006 21.8563 28.1219 21.8563C28.1505 21.8563 28.1791 21.8563 28.2087 21.8563C28.5258 21.8562 28.843 21.8561 29.1601 21.8561C29.1885 21.8561 29.217 21.8561 29.2463 21.8561C30.7821 21.8557 32.318 21.856 33.8538 21.8564C34.0159 21.8565 34.1781 21.8565 34.3403 21.8566C34.4478 21.8566 34.5554 21.8566 34.663 21.8567C35.4663 21.8569 36.2695 21.8569 37.0728 21.8567C37.9861 21.8565 38.8994 21.8567 39.8127 21.8575C40.3239 21.858 40.835 21.8581 41.3462 21.8577C41.6876 21.8575 42.029 21.8578 42.3704 21.8584C42.565 21.8587 42.7595 21.8588 42.9541 21.8584C43.1312 21.8581 43.3084 21.8583 43.4855 21.8589C43.549 21.8591 43.6126 21.859 43.6761 21.8587C44.1909 21.8564 44.6753 21.9113 45.1354 22.1562C45.1636 22.1709 45.1918 22.1855 45.2209 22.2006C45.4451 22.32 45.6453 22.4532 45.8333 22.625C45.8679 22.6562 45.9025 22.6875 45.9381 22.7197C46.4867 23.2404 46.8603 23.9486 46.8931 24.713C46.8941 24.7991 46.8941 24.8852 46.8932 24.9713C46.8928 25.0169 46.8925 25.0624 46.8921 25.1093C46.8736 25.9759 46.534 26.6957 45.9167 27.2916C45.8872 27.3224 45.8578 27.3531 45.8275 27.3847C45.6463 27.5631 45.4482 27.6861 45.224 27.8021C45.1989 27.8153 45.1738 27.8285 45.1479 27.8421C44.6425 28.089 44.128 28.1497 43.5736 28.146C43.5074 28.1461 43.4412 28.1464 43.375 28.1467C43.1941 28.1473 43.0132 28.1469 42.8323 28.1464C42.6351 28.146 42.4379 28.1465 42.2407 28.1469C41.8955 28.1475 41.5502 28.1475 41.205 28.1471C40.6915 28.1465 40.1781 28.1468 39.6647 28.1473C38.7477 28.1482 37.8306 28.1481 36.9136 28.1476C36.1111 28.1472 35.3085 28.1471 34.506 28.1473C34.4528 28.1473 34.3995 28.1473 34.3447 28.1473C34.1286 28.1474 33.9124 28.1474 33.6963 28.1475C32.1881 28.1479 30.6799 28.1479 29.1717 28.1473C29.1291 28.1473 29.1291 28.1473 29.0856 28.1473C28.6242 28.1471 28.1628 28.1469 27.7014 28.1467C25.8715 28.1459 24.0417 28.1459 22.2118 28.1467C21.7506 28.1469 21.2894 28.1471 20.8283 28.1473C20.7857 28.1473 20.7857 28.1473 20.7422 28.1473C19.2085 28.148 17.6748 28.1478 16.1412 28.1474C15.9254 28.1474 15.7097 28.1473 15.494 28.1473C15.4409 28.1473 15.3877 28.1473 15.333 28.1472C14.531 28.1471 13.729 28.1473 12.927 28.1477C12.0151 28.1482 11.1031 28.1481 10.1912 28.1471C9.68088 28.1467 9.17055 28.1466 8.66022 28.1473C8.31928 28.1476 7.97834 28.1474 7.63739 28.1467C7.44318 28.1463 7.24897 28.1461 7.05476 28.1467C6.87781 28.1473 6.70088 28.147 6.52393 28.1462C6.46058 28.146 6.39722 28.1462 6.33387 28.1466C5.78962 28.15 5.27228 28.0627 4.78385 27.8099C4.75641 27.7959 4.72896 27.7819 4.70068 27.7675C4.41017 27.6113 4.18596 27.4024 3.95833 27.1666C3.92761 27.1372 3.89689 27.1078 3.86523 27.0775C3.59678 26.8048 3.44068 26.4728 3.29167 26.125C3.27255 26.0806 3.25342 26.0361 3.23372 25.9904C3.00852 25.352 3.02528 24.4968 3.29167 23.875C3.30263 23.8485 3.31359 23.822 3.32489 23.7947C3.50844 23.3601 3.74529 23.0346 4.08333 22.7083C4.11277 22.6776 4.1422 22.6469 4.17253 22.6152C4.35449 22.436 4.55314 22.3137 4.77865 22.1979C4.81681 22.1781 4.81681 22.1781 4.85574 22.1578C5.35222 21.9166 5.8359 21.8504 6.38052 21.8541Z" fill="black"/>
<path d="M6.38052 9.35412C6.44676 9.35396 6.51301 9.35373 6.57926 9.35343C6.76048 9.35281 6.94169 9.35323 7.12291 9.35383C7.32038 9.35429 7.51784 9.35378 7.71531 9.3534C8.06113 9.35286 8.40694 9.35294 8.75276 9.35343C9.267 9.35415 9.78124 9.35392 10.2955 9.35351C11.2139 9.35279 12.1324 9.35302 13.0509 9.35365C13.8546 9.35419 14.6584 9.35441 15.4621 9.3543C15.5421 9.35429 15.5421 9.35429 15.6237 9.35428C15.8401 9.35425 16.0565 9.35422 16.2729 9.35419C16.8778 9.3541 17.4828 9.35407 18.0877 9.35408C18.1153 9.35408 18.1428 9.35408 18.1712 9.35408C19.0487 9.3541 19.9263 9.35437 20.8038 9.35481C20.8323 9.35483 20.8607 9.35484 20.89 9.35486C21.3521 9.35509 21.8142 9.35534 22.2763 9.35559C24.109 9.35657 25.9417 9.35683 27.7744 9.35639C27.8902 9.35637 28.006 9.35634 28.1219 9.35631C28.1505 9.35631 28.1791 9.3563 28.2087 9.35629C28.5258 9.35622 28.843 9.35615 29.1601 9.35608C29.1885 9.35607 29.217 9.35607 29.2463 9.35606C30.7821 9.35573 32.318 9.35598 33.8538 9.35644C34.0159 9.35649 34.1781 9.35654 34.3403 9.35658C34.4478 9.35661 34.5554 9.35665 34.663 9.35668C35.4663 9.35691 36.2695 9.35686 37.0728 9.35667C37.9861 9.35646 38.8994 9.3567 39.8127 9.35754C40.3239 9.358 40.835 9.35811 41.3462 9.35774C41.6876 9.35752 42.029 9.35776 42.3704 9.35836C42.565 9.3587 42.7595 9.35883 42.9541 9.35842C43.1312 9.35805 43.3084 9.35826 43.4855 9.35892C43.549 9.35906 43.6126 9.35899 43.6761 9.35868C44.1909 9.35638 44.6753 9.41125 45.1354 9.65623C45.1636 9.67087 45.1918 9.68552 45.2209 9.7006C45.4451 9.82001 45.6453 9.95322 45.8333 10.125C45.8679 10.1562 45.9025 10.1875 45.9381 10.2197C46.4867 10.7404 46.8603 11.4486 46.8931 12.213C46.8941 12.2991 46.8941 12.3852 46.8932 12.4713C46.8928 12.5169 46.8925 12.5624 46.8921 12.6093C46.8736 13.4759 46.534 14.1957 45.9167 14.7916C45.8872 14.8224 45.8578 14.8531 45.8275 14.8847C45.6463 15.0631 45.4482 15.1861 45.224 15.3021C45.1989 15.3153 45.1738 15.3285 45.1479 15.3421C44.6425 15.589 44.128 15.6497 43.5736 15.646C43.5074 15.6461 43.4412 15.6464 43.375 15.6467C43.1941 15.6473 43.0132 15.6469 42.8323 15.6464C42.6351 15.646 42.4379 15.6465 42.2407 15.6469C41.8955 15.6475 41.5502 15.6475 41.205 15.6471C40.6915 15.6465 40.1781 15.6468 39.6647 15.6473C38.7477 15.6482 37.8306 15.6481 36.9136 15.6476C36.1111 15.6472 35.3085 15.6471 34.506 15.6473C34.4528 15.6473 34.3995 15.6473 34.3447 15.6473C34.1286 15.6474 33.9124 15.6474 33.6963 15.6475C32.1881 15.6479 30.6799 15.6479 29.1717 15.6473C29.1291 15.6473 29.1291 15.6473 29.0856 15.6473C28.6242 15.6471 28.1628 15.6469 27.7014 15.6467C25.8715 15.6459 24.0417 15.6459 22.2118 15.6467C21.7506 15.6469 21.2894 15.6471 20.8283 15.6473C20.7857 15.6473 20.7857 15.6473 20.7422 15.6473C19.2085 15.648 17.6748 15.6478 16.1412 15.6474C15.9254 15.6474 15.7097 15.6473 15.494 15.6473C15.4409 15.6473 15.3877 15.6473 15.333 15.6472C14.531 15.6471 13.729 15.6473 12.927 15.6477C12.0151 15.6482 11.1031 15.6481 10.1912 15.6471C9.68088 15.6467 9.17055 15.6466 8.66022 15.6473C8.31928 15.6476 7.97834 15.6474 7.63739 15.6467C7.44318 15.6463 7.24897 15.6461 7.05476 15.6467C6.87781 15.6473 6.70088 15.647 6.52393 15.6462C6.46058 15.646 6.39722 15.6462 6.33387 15.6466C5.78962 15.65 5.27228 15.5627 4.78385 15.3099C4.75641 15.2959 4.72896 15.2819 4.70068 15.2675C4.41017 15.1113 4.18596 14.9024 3.95833 14.6666C3.92761 14.6372 3.89689 14.6078 3.86523 14.5775C3.59678 14.3048 3.44068 13.9728 3.29167 13.625C3.27255 13.5806 3.25342 13.5361 3.23372 13.4904C3.00852 12.852 3.02528 11.9968 3.29167 11.375C3.30263 11.3485 3.31359 11.322 3.32489 11.2947C3.50844 10.8601 3.74529 10.5346 4.08333 10.2083C4.11277 10.1776 4.1422 10.1469 4.17253 10.1152C4.35449 9.93603 4.55314 9.81374 4.77865 9.6979C4.81681 9.67806 4.81681 9.67806 4.85574 9.65782C5.35222 9.41658 5.8359 9.35035 6.38052 9.35412Z" fill="black"/>
</g>
</svg>
