<svg width="50" height="50" viewBox="0 0 50 50" fill="none" xmlns="http://www.w3.org/2000/svg">
<g opacity="0.5" clip-path="url(#clip0_34_24)">
<path d="M12.5977 6.05474C12.8479 6.25616 12.8479 6.25616 12.9883 6.54302C12.9702 7.14635 12.7656 7.45501 12.4023 7.90411C11.8308 8.64759 11.3678 9.42182 10.9375 10.254C10.9063 10.3138 10.8751 10.3737 10.8429 10.4354C10.1004 11.8804 9.63127 13.437 9.375 15.0391C9.357 15.1508 9.339 15.2624 9.32045 15.3775C9.11578 17.094 9.14817 19.027 9.57031 20.7032C9.59023 20.7842 9.61015 20.8653 9.63068 20.9488C9.92569 22.1222 10.3058 23.2309 10.8398 24.3165C10.8698 24.3781 10.8997 24.4397 10.9306 24.5032C11.6191 25.9037 12.5182 27.0767 13.5452 28.2445C15.1546 30.0793 16.2366 31.9754 17.3828 34.1797C24.9722 34.2281 24.9722 34.2281 32.7148 34.2774C32.7471 34.1163 32.7793 33.9551 32.8125 33.7891C32.9497 33.4641 33.1178 33.1549 33.2825 32.8431C33.3298 32.7532 33.3772 32.6633 33.4259 32.5707C33.7605 31.9476 34.1194 31.3457 34.5093 30.7557C34.5568 30.6831 34.6044 30.6106 34.6534 30.5359C34.9109 30.1564 35.1525 29.839 35.5469 29.5899C35.8855 29.5957 36.1219 29.628 36.4197 29.7913C36.5906 30.1029 36.5763 30.4196 36.5234 30.7618C36.3959 31.0466 36.2229 31.2902 36.0413 31.543C35.9425 31.6877 35.844 31.8327 35.746 31.9779C35.6963 32.0511 35.6466 32.1243 35.5954 32.1997C35.3653 32.5494 35.1587 32.911 34.9548 33.2764C34.9188 33.3404 34.8827 33.4043 34.8456 33.4702C34.4922 34.084 34.4922 34.084 34.375 34.7657C34.5179 34.8794 34.6609 34.9929 34.8049 35.1052C35.2098 35.4913 35.4145 36.0769 35.4691 36.6253C35.4831 37.2673 35.3918 37.8912 34.9792 38.4034C34.941 38.4598 34.9027 38.5162 34.8633 38.5743C34.918 38.8174 34.918 38.8174 35.0586 39.0626C35.4599 39.8491 35.5924 40.5271 35.321 41.388C35.2282 41.6455 35.1528 41.8012 34.9792 42.0167C34.941 42.0731 34.9027 42.1294 34.8633 42.1876C34.918 42.4307 34.918 42.4307 35.0586 42.6758C35.4179 43.3801 35.5961 44.0004 35.379 44.785C35.0831 45.5762 34.6811 46.0927 33.9283 46.4875C33.5552 46.6365 33.2125 46.6607 32.8125 46.6797C32.8193 46.7366 32.8261 46.7935 32.8331 46.8522C32.8895 47.7057 32.5797 48.3696 32.0629 49.0407C31.5616 49.5789 30.9035 49.9673 30.158 50.0132C30.0416 50.0138 30.0416 50.0138 29.9229 50.0144C29.7886 50.0155 29.7886 50.0155 29.6516 50.0165C29.5541 50.0168 29.4566 50.0171 29.3561 50.0173C29.2529 50.018 29.1496 50.0186 29.0432 50.0193C28.7013 50.0212 28.3594 50.0223 28.0174 50.0233C27.9005 50.0237 27.7836 50.0241 27.6631 50.0245C27.044 50.0266 26.4248 50.028 25.8057 50.0289C25.1674 50.03 24.529 50.0333 23.8907 50.0372C23.3989 50.0398 22.9071 50.0406 22.4153 50.0409C22.1801 50.0414 21.9449 50.0425 21.7096 50.0443C21.3796 50.0467 21.0497 50.0466 20.7197 50.0459C20.5752 50.0478 20.5752 50.0478 20.4278 50.0497C19.4896 50.0428 18.7271 49.7589 18.0424 49.1143C17.772 48.8168 17.5699 48.4991 17.3828 48.1446C17.3405 48.068 17.2982 47.9915 17.2546 47.9127C17.148 47.5056 17.1729 47.098 17.1875 46.6797C17.0626 46.6757 16.9377 46.6717 16.8091 46.6675C16.1424 46.5898 15.5873 46.2909 15.147 45.7825C14.6818 45.1124 14.4437 44.4711 14.5508 43.6524C14.6974 43.142 14.8928 42.6589 15.1367 42.1876C15.0763 42.105 15.0159 42.0224 14.9536 41.9373C14.5697 41.3546 14.4754 40.7232 14.5508 40.0391C14.6469 39.629 14.7547 39.2707 15.0208 38.9405C15.0782 38.8559 15.0782 38.8559 15.1367 38.7696C15.082 38.5264 15.082 38.5264 14.9414 38.2813C14.5821 37.5771 14.4039 36.9567 14.621 36.1722C14.871 35.5036 15.2202 35.0699 15.7227 34.5704C14.8798 32.9086 14.8798 32.9086 13.8672 31.3477C13.8016 31.2556 13.736 31.1634 13.6684 31.0685C13.263 30.5122 12.8322 29.9903 12.3779 29.4739C8.87954 25.4754 7.39344 21.0002 7.61719 15.7227C7.84895 12.2651 9.39902 8.78579 11.6211 6.1524C11.9354 5.99524 12.2577 5.99641 12.5977 6.05474ZM16.217 36.3526C16.0766 36.716 16.1107 36.9304 16.2109 37.3047C16.4244 37.6321 16.5215 37.7663 16.8945 37.8907C17.1102 37.9003 17.3261 37.9039 17.5419 37.9044C17.608 37.9047 17.6741 37.905 17.7422 37.9053C17.9642 37.9061 18.1862 37.9063 18.4082 37.9064C18.5671 37.9069 18.7261 37.9074 18.885 37.9079C19.3172 37.9092 19.7494 37.9098 20.1816 37.9102C20.4515 37.9105 20.7215 37.9109 20.9914 37.9114C21.8358 37.9127 22.6801 37.9136 23.5244 37.914C24.4995 37.9144 25.4746 37.9162 26.4497 37.919C27.2032 37.9211 27.9567 37.9221 28.7102 37.9222C29.1603 37.9223 29.6105 37.9229 30.0606 37.9246C30.484 37.9262 30.9073 37.9265 31.3307 37.9256C31.4861 37.9255 31.6415 37.926 31.7969 37.9269C32.009 37.9282 32.2211 37.9276 32.4333 37.9266C32.552 37.9267 32.6707 37.9269 32.793 37.927C33.2388 37.8752 33.4919 37.7199 33.7769 37.378C33.9269 37.0113 33.8974 36.8051 33.7891 36.4258C33.5374 36.1212 33.3834 35.9651 33.0078 35.8399C32.7949 35.8303 32.5817 35.8267 32.3685 35.8262C32.2707 35.8257 32.2707 35.8257 32.1708 35.8253C31.9518 35.8245 31.7327 35.8243 31.5137 35.8242C31.3568 35.8237 31.1999 35.8232 31.043 35.8227C30.6165 35.8214 30.1899 35.8208 29.7634 35.8203C29.4969 35.8201 29.2304 35.8197 28.964 35.8192C28.1303 35.8179 27.2967 35.8169 26.463 35.8166C25.5006 35.8161 24.5381 35.8144 23.5757 35.8116C22.8318 35.8095 22.088 35.8085 21.3441 35.8084C20.8998 35.8083 20.4555 35.8077 20.0112 35.8059C19.5932 35.8043 19.1752 35.8041 18.7572 35.805C18.6039 35.805 18.4506 35.8046 18.2973 35.8037C18.0877 35.8024 17.8783 35.803 17.6687 35.804C17.4929 35.8038 17.4929 35.8038 17.3136 35.8036C16.8512 35.8558 16.522 35.9985 16.217 36.3526ZM16.1682 40.0208C16.0827 40.3534 16.1239 40.5872 16.2109 40.918C16.4248 41.1703 16.5985 41.3559 16.8945 41.504C17.264 41.5202 17.6329 41.533 18.0027 41.5373C18.5927 41.558 18.5927 41.558 18.9003 41.7828C19.0963 42.0706 19.0998 42.237 19.043 42.5782C18.9018 42.7891 18.9018 42.7891 18.6523 42.9688C18.2674 43.0322 17.8778 43.0136 17.4889 43.0079C17.0748 43.0134 16.7854 43.0289 16.452 43.29C16.1697 43.6 16.1117 43.7385 16.0904 44.1411C16.1303 44.4814 16.2784 44.6727 16.5039 44.9219C16.8924 45.1224 17.2214 45.142 17.655 45.1427C17.7204 45.1431 17.7858 45.1434 17.8532 45.1438C18.0716 45.1448 18.2901 45.1445 18.5085 45.1441C18.6654 45.1445 18.8223 45.145 18.9792 45.1456C19.405 45.1469 19.8307 45.1469 20.2564 45.1467C20.612 45.1466 20.9675 45.1471 21.323 45.1475C22.1618 45.1486 23.0006 45.1487 23.8394 45.1481C24.7045 45.1475 25.5696 45.1487 26.4347 45.1508C27.1778 45.1525 27.9208 45.1531 28.6638 45.1528C29.1075 45.1526 29.5511 45.1528 29.9948 45.1542C30.412 45.1554 30.8292 45.1552 31.2464 45.154C31.3994 45.1537 31.5523 45.154 31.7053 45.1548C31.9144 45.1558 32.1235 45.155 32.3326 45.1538C32.508 45.1538 32.508 45.1538 32.687 45.1538C33.149 45.1011 33.4782 44.9584 33.783 44.6045C33.9234 44.2411 33.8893 44.0267 33.7891 43.6524C33.611 43.3882 33.4888 43.2093 33.2031 43.0665C33.0493 43.0567 32.8952 43.053 32.7411 43.0523C32.6436 43.0517 32.5461 43.051 32.4457 43.0503C32.2846 43.0499 32.2846 43.0499 32.1204 43.0495C32.0076 43.0489 31.8949 43.0482 31.7787 43.0475C31.5332 43.0462 31.2877 43.045 31.0422 43.044C30.654 43.0424 30.2659 43.0402 29.8777 43.0377C28.7737 43.0307 27.6698 43.0249 26.5658 43.0199C25.9563 43.0171 25.3468 43.0137 24.7373 43.0095C24.4147 43.0073 24.0921 43.0056 23.7695 43.0046C23.4097 43.0034 23.0499 43.001 22.6901 42.9984C22.5831 42.9983 22.4761 42.9983 22.366 42.9982C22.2679 42.9973 22.1699 42.9963 22.0689 42.9953C21.9838 42.9949 21.8987 42.9945 21.811 42.9941C21.5615 42.9665 21.403 42.9071 21.1914 42.7735C21.1182 42.5973 21.1182 42.5973 21.0937 42.3951C21.0786 42.2957 21.0786 42.2957 21.0632 42.1944C21.0937 41.9922 21.0937 41.9922 21.2221 41.7872C21.6447 41.4881 22.0811 41.5493 22.5862 41.5545C22.6987 41.5541 22.8111 41.5537 22.927 41.5533C23.1713 41.5528 23.4156 41.5531 23.6599 41.5542C24.0466 41.5559 24.4332 41.5551 24.8198 41.5538C25.7105 41.5509 26.6012 41.552 27.4919 41.553C28.3079 41.554 29.1238 41.5541 29.9398 41.5511C30.3856 41.5496 30.8314 41.5511 31.2773 41.5531C31.511 41.5525 31.7447 41.5519 31.9784 41.5511C32.0843 41.5522 32.1903 41.5533 32.2994 41.5544C32.8921 41.5496 33.2404 41.51 33.6914 41.1133C33.8973 40.8537 33.8867 40.724 33.8806 40.387C33.7724 39.9758 33.6244 39.8192 33.3008 39.5508C33.0214 39.4111 32.7829 39.4399 32.4705 39.4388C32.4045 39.4384 32.3386 39.4381 32.2706 39.4377C32.0486 39.4366 31.8265 39.4363 31.6045 39.4359C31.4457 39.4353 31.2869 39.4346 31.1281 39.4339C30.6959 39.4322 30.2637 39.4312 29.8315 39.4304C29.5615 39.4299 29.2916 39.4293 29.0216 39.4287C28.1773 39.4268 27.3329 39.4255 26.4885 39.4246C25.5134 39.4237 24.5383 39.4211 23.5632 39.4172C22.8098 39.4142 22.0564 39.4128 21.303 39.4125C20.8529 39.4122 20.4028 39.4113 19.9527 39.4089C19.5292 39.4066 19.1057 39.4062 18.6821 39.4072C18.5268 39.4073 18.3714 39.4066 18.2161 39.4053C18.0037 39.4036 17.7915 39.4043 17.5791 39.4055C17.4604 39.4053 17.3416 39.4051 17.2193 39.4048C16.7713 39.4715 16.4505 39.6649 16.1682 40.0208ZM18.75 46.6797C18.7465 47.4112 18.7465 47.4112 19.1406 47.9493C19.7484 48.5407 20.4339 48.5643 21.2368 48.562C21.3269 48.5625 21.417 48.563 21.5099 48.5635C21.8063 48.5649 22.1027 48.5648 22.3991 48.5646C22.6062 48.565 22.8134 48.5654 23.0205 48.5659C23.454 48.5666 23.8876 48.5666 24.3212 48.566C24.8754 48.5655 25.4295 48.5671 25.9837 48.5694C26.4113 48.5708 26.8389 48.5709 27.2665 48.5706C27.4708 48.5707 27.675 48.5712 27.8793 48.5722C28.1655 48.5734 28.4517 48.5727 28.738 48.5716C28.8214 48.5723 28.9048 48.5731 28.9908 48.5738C29.6243 48.5683 30.2723 48.4815 30.777 48.071C30.8419 47.9835 30.8419 47.9835 30.9082 47.8943C30.9762 47.8065 30.9762 47.8065 31.0455 47.717C31.3134 47.3199 31.25 47.2685 31.25 46.6797C27.125 46.6797 23 46.6797 18.75 46.6797Z" fill="black"/>
<path d="M24.0646 4.4688C24.1727 4.46762 24.1727 4.46762 24.2829 4.46642C24.4356 4.46506 24.5883 4.46402 24.741 4.46325C24.9734 4.46157 25.2056 4.45729 25.4379 4.45297C25.5864 4.45198 25.735 4.45115 25.8835 4.45049C25.9525 4.44878 26.0215 4.44707 26.0925 4.44531C26.7359 4.44811 27.0736 4.71016 27.5146 5.15125C27.8213 5.59425 27.9297 5.99824 27.9297 6.54286C28.0239 6.56438 28.0239 6.56438 28.12 6.58634C28.7894 6.75249 29.373 6.99725 29.9858 7.31342C30.3078 7.43472 30.4402 7.43377 30.7617 7.32411C30.884 7.26108 31.0042 7.1939 31.1218 7.12269C31.5767 6.88709 32.0161 6.84589 32.5195 6.93348C32.9505 7.12162 33.252 7.3363 33.5831 7.66857C33.6684 7.75399 33.7538 7.8394 33.8417 7.9274C33.9291 8.01634 34.0164 8.10527 34.1064 8.19691C34.1953 8.28547 34.2842 8.37403 34.3758 8.46527C35.2805 9.37734 35.2805 9.37734 35.2966 10.1806C35.2918 10.7181 35.2122 11.0295 34.8629 11.4375C34.7127 11.7208 34.7845 11.9009 34.8633 12.2069C34.9541 12.4548 35.0479 12.6965 35.1501 12.9393C35.3307 13.3743 35.5011 13.8087 35.6445 14.2577C35.7153 14.2673 35.786 14.2768 35.8589 14.2867C36.4242 14.3741 36.8674 14.449 37.3047 14.8436C37.8037 15.5487 37.8168 16.172 37.8218 17.0094C37.8235 17.2033 37.8277 17.3973 37.8321 17.5912C37.8372 18.3701 37.8218 18.9857 37.2644 19.5808C36.7292 20.0605 36.2313 20.1339 35.5469 20.2147C35.4204 20.5116 35.2944 20.8087 35.1685 21.1058C35.1328 21.1894 35.0972 21.273 35.0605 21.3591C34.9605 21.5955 34.8629 21.8327 34.7656 22.0702C34.6963 22.2339 34.6963 22.2339 34.6256 22.4009C34.5418 22.6541 34.5418 22.6541 34.676 22.8526C34.7317 22.9066 34.7875 22.9606 34.845 23.0162C35.2212 23.3908 35.2704 23.6735 35.2783 24.2003C35.2821 24.3493 35.2821 24.3493 35.2859 24.5013C35.2003 25.3118 34.6081 25.7907 34.0576 26.3366C33.9762 26.42 33.8947 26.5034 33.8108 26.5893C33.3123 27.0874 32.9163 27.4489 32.2083 27.5779C31.5928 27.5699 31.1133 27.4131 30.6763 26.9652C30.4075 26.7362 30.4075 26.7362 30.1907 26.7711C29.9495 26.849 29.724 26.9479 29.4922 27.0507C29.3662 27.0996 29.2399 27.1479 29.1134 27.1956C28.9792 27.2469 28.845 27.2983 28.7109 27.3497C28.6454 27.3748 28.5798 27.3999 28.5122 27.4258C28.1543 27.5487 28.1543 27.5487 27.9297 27.8319C27.9088 28.015 27.8886 28.1981 27.8687 28.3812C27.7697 29.0004 27.5465 29.3976 27.0508 29.785C26.4722 30.0724 25.8528 30.0131 25.2227 30.0112C25.0071 30.0109 24.7916 30.0132 24.576 30.0156C24.4377 30.0159 24.2994 30.0159 24.1611 30.0158C24.0364 30.0161 23.9117 30.0164 23.7831 30.0167C23.1784 29.9531 22.7657 29.6814 22.3873 29.2224C22.1889 28.866 22.1593 28.4944 22.121 28.0928C22.0619 27.7884 22.0308 27.7132 21.7773 27.5389C21.5234 27.4301 21.2741 27.332 21.0144 27.2399C20.9461 27.2149 20.8778 27.1899 20.8075 27.1642C20.6732 27.1153 20.5386 27.0673 20.4036 27.0204C20.2316 26.959 20.0622 26.8902 19.8933 26.8206C19.6342 26.7277 19.6342 26.7277 19.4427 26.8599C19.3914 26.9148 19.34 26.9697 19.2871 27.0263C18.876 27.4202 18.5499 27.5205 17.981 27.5756C17.0461 27.5421 16.4443 26.8532 15.8325 26.2267C15.7492 26.144 15.6658 26.0614 15.58 25.9763C15.0279 25.4185 14.72 25.039 14.7095 24.2308C14.7198 23.5869 14.8744 23.2396 15.3076 22.7599C15.3479 22.7257 15.3882 22.6914 15.4297 22.6561C15.2908 22.2187 15.1245 21.8012 14.9414 21.3805C14.6513 20.7125 14.6513 20.7125 14.5645 20.423C14.4712 20.1909 14.4712 20.1909 14.2197 20.1381C14.1275 20.1291 14.0354 20.1202 13.9404 20.111C13.3358 20.0256 12.991 19.8433 12.5732 19.3908C12.1108 18.7137 12.1746 18.0424 12.1765 17.2484C12.1749 17.1213 12.1734 16.9941 12.1717 16.8631C12.1713 16.053 12.1919 15.503 12.7258 14.8681C13.2542 14.4257 13.6924 14.3313 14.3555 14.2577C14.4846 13.9285 14.6124 13.5987 14.74 13.2689C14.7764 13.176 14.8129 13.0831 14.8504 12.9874C15.1194 12.3225 15.1194 12.3225 15.2344 11.621C15.1427 11.4319 15.1427 11.4319 14.9963 11.2731C14.6398 10.7562 14.6371 10.1758 14.7461 9.5702C15.0598 8.96485 15.5797 8.50896 16.0583 8.03211C16.141 7.9479 16.2236 7.86368 16.3088 7.77691C16.3892 7.69647 16.4695 7.61603 16.5524 7.53315C16.625 7.46017 16.6977 7.38719 16.7726 7.31199C17.2176 6.94072 17.6457 6.89187 18.2068 6.90106C18.5347 6.94355 18.7733 7.05921 19.054 7.22912C19.2941 7.3529 19.454 7.40555 19.7266 7.42176C19.9928 7.32386 20.2358 7.22165 20.4895 7.09828C21.0126 6.84851 21.503 6.66801 22.0703 6.54286C22.0728 6.48621 22.0753 6.42956 22.0779 6.37119C22.122 5.76369 22.2497 5.36954 22.7077 4.93725C23.1769 4.53461 23.4636 4.47502 24.0646 4.4688ZM23.7732 6.13049C23.6363 6.34212 23.5715 6.48585 23.5291 6.73206C23.4321 7.16493 23.3563 7.48232 22.9599 7.73457C22.4016 8.02665 21.8132 8.25521 21.226 8.48203C20.9412 8.59248 20.6716 8.70817 20.4021 8.85265C19.9264 9.07239 19.4586 9.04903 18.9453 8.98426C18.6837 8.88075 18.4962 8.75487 18.2617 8.59364C18.0754 8.50213 18.0754 8.50213 17.8711 8.49598C17.5626 8.69901 17.3173 8.97746 17.0593 9.24061C16.9857 9.31148 16.9122 9.38236 16.8364 9.45538C16.7328 9.55942 16.7328 9.55942 16.6271 9.66557C16.5636 9.72909 16.5001 9.79262 16.4347 9.85807C16.2836 10.0547 16.2836 10.0547 16.3253 10.31C16.4003 10.5659 16.4003 10.5659 16.6016 10.8214C16.878 11.262 16.9475 11.6364 16.8514 12.1398C16.6951 12.6972 16.4715 13.2294 16.2415 13.7599C16.1548 13.9645 16.0735 14.1714 15.9973 14.3802C15.6368 15.3466 15.6368 15.3466 15.1405 15.6428C14.8263 15.7686 14.5079 15.8266 14.1735 15.8732C13.945 15.9023 13.945 15.9023 13.7695 16.1132C13.7392 16.3467 13.7392 16.3467 13.7436 16.6167C13.7433 16.7165 13.7431 16.8164 13.7428 16.9192C13.7436 17.0238 13.7443 17.1284 13.7451 17.2362C13.7444 17.3408 13.7436 17.4454 13.7428 17.5532C13.7431 17.653 13.7433 17.7529 13.7436 17.8557C13.7438 17.9476 13.744 18.0394 13.7443 18.134C13.7479 18.3783 13.7479 18.3783 13.9648 18.5546C14.1345 18.5895 14.3058 18.617 14.4775 18.64C14.9475 18.7205 15.2627 18.8136 15.625 19.1405C15.9273 19.6263 16.1523 20.1236 16.3635 20.6542C16.4206 20.7956 16.4777 20.937 16.5348 21.0784C16.5621 21.1464 16.5893 21.2144 16.6174 21.2845C16.6963 21.4771 16.7798 21.6669 16.8644 21.857C17.1001 22.4304 17.0136 22.9016 16.7908 23.4587C16.6992 23.6327 16.6992 23.6327 16.4795 23.8463C16.4231 23.9047 16.3667 23.9631 16.3086 24.0233C16.3384 24.4182 16.4555 24.6084 16.7362 24.8797C16.802 24.9442 16.8678 25.0088 16.9355 25.0752C17.0046 25.141 17.0736 25.2068 17.1448 25.2745C17.2142 25.3422 17.2836 25.4099 17.3552 25.4796C17.5263 25.6461 17.6983 25.8117 17.8711 25.9764C18.158 25.8693 18.362 25.779 18.6035 25.5858C19.0148 25.2568 19.3706 25.1478 19.9028 25.1654C20.2211 25.2096 20.4893 25.3201 20.7825 25.4493C21.0373 25.561 21.2923 25.6644 21.5515 25.7651C21.7184 25.8315 21.8852 25.8978 22.052 25.9642C22.1325 25.995 22.2131 26.0258 22.2961 26.0575C22.8244 26.2725 23.1182 26.476 23.4375 26.953C23.521 27.1571 23.521 27.1571 23.5535 27.3375C23.6255 27.7105 23.7213 28.0438 23.8281 28.4179C24.6016 28.4179 25.375 28.4179 26.1719 28.4179C26.3266 27.8772 26.3266 27.8772 26.4465 27.3375C26.5527 26.9302 26.7133 26.6258 27.0508 26.3671C27.319 26.229 27.5896 26.1192 27.8717 26.0123C28.1326 25.9131 28.3858 25.8091 28.6407 25.6965C28.713 25.665 28.7852 25.6336 28.8596 25.6012C29.0012 25.5396 29.1425 25.477 29.2832 25.4134C29.8266 25.1817 30.312 25.0854 30.8941 25.2669C30.9531 25.2996 31.0122 25.3324 31.073 25.3661C31.1368 25.4013 31.2006 25.4366 31.2664 25.4729C31.5047 25.6233 31.7217 25.791 31.9336 25.9764C32.385 25.7719 32.6886 25.4599 33.0383 25.1159C33.1026 25.0556 33.1669 24.9954 33.2331 24.9333C33.5967 24.5993 33.5967 24.5993 33.6952 24.1408C33.5682 23.8715 33.3896 23.669 33.2031 23.4374C32.9953 22.9594 32.8939 22.4858 33.0749 21.9806C33.1392 21.8378 33.2058 21.6961 33.2741 21.5552C33.4835 21.1068 33.6537 20.642 33.8318 20.1804C34.0978 19.5593 34.329 19.0601 34.9609 18.7499C35.2406 18.6878 35.5178 18.6407 35.8017 18.6026C36.0522 18.5734 36.0522 18.5734 36.2305 18.3593C36.2608 18.1257 36.2608 18.1257 36.2564 17.8557C36.2567 17.7559 36.2569 17.6561 36.2572 17.5532C36.2564 17.4486 36.2557 17.344 36.2549 17.2362C36.2556 17.1316 36.2564 17.027 36.2572 16.9192C36.2569 16.8194 36.2567 16.7196 36.2564 16.6167C36.2561 16.479 36.2561 16.479 36.2557 16.3384C36.252 16.0941 36.252 16.0941 36.0352 15.9179C35.7456 15.84 35.4541 15.7808 35.1604 15.7203C34.7205 15.5791 34.4591 15.3895 34.2377 14.981C34.2024 14.8873 34.1672 14.7936 34.1309 14.6972C34.0908 14.5937 34.0508 14.4902 34.0096 14.3836C33.969 14.2776 33.9285 14.1716 33.8867 14.0624C33.8018 13.8628 33.7163 13.6634 33.6304 13.4642C33.5521 13.2734 33.4747 13.0822 33.3984 12.8905C33.3646 12.8059 33.3307 12.7213 33.2958 12.6342C33.0818 12.0307 33.074 11.5421 33.3008 10.9374C33.4287 10.7729 33.5584 10.6096 33.6914 10.4491C33.6465 9.86496 33.2768 9.5826 32.8796 9.19178C32.7804 9.08906 32.7804 9.08906 32.6792 8.98426C32.5826 8.88796 32.5826 8.88796 32.4841 8.78971C32.396 8.70155 32.396 8.70155 32.3062 8.61161C32.1361 8.47461 32.1361 8.47461 31.9297 8.51386C31.7121 8.59685 31.7121 8.59685 31.4453 8.79505C30.9349 9.08409 30.4521 9.08856 29.8828 8.98426C29.344 8.79864 28.8343 8.54531 28.3227 8.29604C28.0728 8.17846 27.8171 8.08296 27.5574 7.98939C27.1005 7.81088 26.8144 7.55949 26.5442 7.1471C26.4448 6.87949 26.3884 6.60848 26.334 6.32847C26.2754 6.11447 26.2754 6.11447 25.9766 5.95692C25.6546 5.91264 25.3308 5.92076 25.0061 5.9203C24.9175 5.9179 24.829 5.91551 24.7377 5.91305C24.2232 5.90651 24.2232 5.90651 23.7732 6.13049Z" fill="black"/>
<path d="M29.6448 10.852C29.7575 10.9446 29.8695 11.0381 29.9805 11.1328C30.0356 11.1741 30.0907 11.2154 30.1475 11.2579C31.5209 12.3268 32.3905 14.1654 32.671 15.8504C32.9265 17.9499 32.4516 19.9283 31.25 21.6797C29.9318 23.3352 28.186 24.4387 26.0648 24.7357C23.9522 24.9741 21.8782 24.4653 20.1904 23.1506C20.0346 23.0198 19.8799 22.8877 19.7266 22.7539C19.6665 22.7032 19.6065 22.6524 19.5446 22.6002C18.1646 21.3407 17.3614 19.3262 17.2653 17.4927C17.2263 15.4624 17.7493 13.6877 19.043 12.1094C19.1223 12.0063 19.1223 12.0063 19.2032 11.9011C21.7115 8.79609 26.5435 8.5814 29.6448 10.852ZM20.3697 12.9646C19.2442 14.4064 18.6954 15.9318 18.8477 17.7734C18.9689 18.5956 19.2174 19.299 19.6289 20.0195C19.699 19.9479 19.7691 19.8763 19.8414 19.8025C20.5434 19.1121 21.3071 18.5426 22.168 18.0664C22.1398 18.0058 22.1116 17.9453 22.0825 17.8829C21.6972 16.9639 21.5908 15.9666 21.9177 15.0085C22.3176 14.1621 22.9598 13.5221 23.8281 13.1836C24.6488 12.9167 25.7717 12.9767 26.5453 13.3472C27.3975 13.8659 27.9549 14.5643 28.2227 15.5273C28.3116 16.4486 28.2231 17.2267 27.832 18.0664C27.9228 18.123 28.0136 18.1797 28.1071 18.2381C28.9439 18.7649 29.6809 19.3085 30.3711 20.0195C31.201 18.5663 31.3659 17.0239 30.9411 15.4135C30.4814 13.8204 29.5258 12.5616 28.093 11.7241C25.5308 10.3393 22.3426 10.7109 20.3697 12.9646ZM23.5535 15.2405C23.2044 15.7093 23.178 16.133 23.2422 16.6992C23.4038 17.2456 23.6806 17.5701 24.152 17.8799C24.5512 18.0957 24.948 18.1217 25.3906 18.0664C25.9967 17.8815 26.3613 17.5451 26.6602 16.9922C26.8092 16.5451 26.848 16.0801 26.6911 15.628C26.4392 15.1516 26.0708 14.7932 25.5859 14.5508C24.6926 14.4692 24.1607 14.5527 23.5535 15.2405ZM22.1344 19.8494C21.5626 20.2622 21.0645 20.6733 20.7031 21.2891C20.9595 21.9827 21.8553 22.4059 22.493 22.7173C24.0941 23.367 25.6836 23.3937 27.2964 22.805C28.0429 22.4787 28.6908 22.0249 29.2969 21.4844C28.9677 20.4668 27.9962 19.8786 27.0966 19.3996C26.5979 19.1968 26.3139 19.2577 25.8247 19.4546C25.1898 19.6584 24.529 19.5903 23.9136 19.3603C23.205 19.1272 22.7147 19.4488 22.1344 19.8494Z" fill="black"/>
<path d="M23.9674 -0.0199224C24.0436 -0.0206119 24.1199 -0.0213013 24.1985 -0.0220116C27.3379 -0.0439574 27.3379 -0.0439574 28.7109 0.292883C28.8367 0.321986 28.8367 0.321986 28.965 0.351677C30.2501 0.653334 31.4359 1.07332 32.6172 1.66007C32.7235 1.71202 32.7235 1.71202 32.8319 1.76502C35.353 3.00686 37.4974 4.86683 39.1602 7.12882C39.2013 7.18413 39.2425 7.23944 39.2848 7.29643C41.9237 10.8873 42.9041 15.6323 42.2728 20.0136C41.7641 23.0113 40.5899 26.0087 38.5742 28.3202C38.2306 28.5493 38.0998 28.5722 37.6953 28.5155C37.387 28.2877 37.2285 28.1483 37.1605 27.7656C37.2272 27.3009 37.4633 27.0268 37.7441 26.6601C37.8529 26.5115 37.9612 26.3626 38.0692 26.2134C38.1223 26.1399 38.1755 26.0665 38.2303 25.9908C40.4498 22.8589 41.1958 18.5813 40.6128 14.8315C40.5607 14.5401 40.4983 14.2526 40.4297 13.9648C40.4006 13.8422 40.4006 13.8422 40.3709 13.7172C39.386 9.71493 36.9215 6.17384 33.4055 3.98427C29.8013 1.80894 25.5629 1.00748 21.4353 1.97896C19.1134 2.56446 17.0569 3.53572 15.1855 5.0357C14.8844 5.20839 14.6977 5.21253 14.3555 5.1757C14.0747 5.02921 14.0747 5.02921 13.8672 4.78507C13.7871 4.44173 13.762 4.32359 13.8672 4.00382C15.5498 1.67631 19.6769 0.538099 22.3633 0.0975702C22.9015 0.0206016 23.4241 -0.0166455 23.9674 -0.0199224Z" fill="black"/>
</g>
<defs>
<clipPath id="clip0_34_24">
<rect width="50" height="50" fill="white"/>
</clipPath>
</defs>
</svg>
