<svg width="289" height="354" viewBox="0 0 289 354" fill="none" xmlns="http://www.w3.org/2000/svg">
<g clip-path="url(#clip0_9_49)">
<path d="M39.8506 135.516C39.8392 134.389 39.8392 134.389 39.8275 133.239C39.8238 132.008 39.8238 132.008 39.82 130.752C39.8129 129.885 39.8058 129.017 39.7985 128.124C39.7804 125.748 39.7675 123.372 39.7572 120.996C39.7455 118.508 39.7283 116.021 39.7119 113.533C39.6854 109.356 39.6637 105.179 39.6447 101.002C39.6226 96.1736 39.5923 91.3454 39.5578 86.5171C39.5283 82.3707 39.5033 78.2243 39.482 74.0778C39.4693 71.6016 39.455 69.1256 39.4367 66.6495C39.4167 63.8894 39.4059 61.1293 39.3961 58.3691C39.389 57.5483 39.3819 56.7276 39.3746 55.8819C39.3734 55.1304 39.3722 54.3789 39.371 53.6046C39.3659 52.6258 39.3659 52.6258 39.3607 51.6273C39.5015 49.8014 39.8795 48.6432 40.622 47.0659C40.9995 47.0618 41.377 47.0576 41.766 47.0534C41.7632 46.5891 41.7605 46.1248 41.7577 45.6465C42.8804 44.8327 44.009 44.0314 45.1399 43.2351C45.7677 42.7875 46.3955 42.3399 47.0424 41.8787C50.9391 39.4069 55.1135 38.9596 59.4292 38.947C59.9195 38.9399 60.4098 38.9328 60.9149 38.9255C62.5465 38.9036 64.178 38.8917 65.8097 38.8798C66.9874 38.8661 68.1652 38.8518 69.343 38.8369C72.5515 38.7981 75.76 38.7682 78.9686 38.74C82.3912 38.7086 85.8138 38.6696 89.2363 38.6317C95.0416 38.5684 100.847 38.5106 106.652 38.4563C112.48 38.4018 118.308 38.3428 124.136 38.2783C154.504 37.9424 184.872 37.6915 215.241 37.6999C217.193 37.7002 219.145 37.6995 221.098 37.6986C224.131 37.6975 227.164 37.7001 230.197 37.7057C231.3 37.7074 232.404 37.7081 233.507 37.7077C235.014 37.7074 236.521 37.7113 238.028 37.7162C238.671 37.7149 238.671 37.7149 239.328 37.7135C242.501 37.7304 245.628 38.0415 248.783 38.4436C249.014 73.457 249.239 108.471 249.456 143.484C249.482 147.614 249.508 151.743 249.533 155.873C249.538 156.695 249.544 157.517 249.549 158.364C249.632 171.693 249.719 185.022 249.807 198.35C249.898 212.017 249.984 225.684 250.067 239.351C250.118 247.79 250.172 256.23 250.231 264.669C250.271 270.449 250.306 276.229 250.339 282.009C250.358 285.349 250.378 288.688 250.404 292.027C250.427 295.08 250.446 298.133 250.46 301.186C250.466 302.294 250.474 303.403 250.484 304.511C250.497 306.01 250.503 307.509 250.508 309.007C250.516 310.26 250.516 310.26 250.524 311.538C250.393 313.477 250.393 313.477 249.258 314.897C247.973 315.105 247.973 315.105 246.338 315.15C245.72 315.17 245.102 315.19 244.465 315.211C243.784 315.226 243.104 315.241 242.402 315.256C241.69 315.277 240.977 315.298 240.243 315.319C238.284 315.375 236.324 315.424 234.364 315.471C232.706 315.511 231.049 315.556 229.391 315.601C211.845 316.075 194.297 316.372 176.748 316.615C176.352 316.621 175.956 316.626 175.549 316.632C167.61 316.743 159.671 316.85 151.732 316.95C150.027 316.972 148.322 316.993 146.617 317.015C146.194 317.02 145.77 317.026 145.334 317.031C138.398 317.12 131.463 317.225 124.527 317.337C117.321 317.453 110.115 317.552 102.908 317.637C98.8948 317.684 94.8819 317.739 90.869 317.811C87.1204 317.879 83.372 317.926 79.6231 317.958C78.2563 317.973 76.8895 317.995 75.5229 318.025C60.6301 318.345 60.6301 318.345 54.1944 313.527C51.5197 309.378 51.2081 306.162 51.1898 301.016C51.1852 300.374 51.1807 299.731 51.176 299.069C51.1612 296.906 51.1505 294.743 51.1396 292.581C51.1298 291.034 51.1196 289.487 51.1092 287.94C51.0871 284.604 51.0665 281.268 51.0469 277.932C51.0154 272.66 50.9772 267.388 50.9374 262.115C50.9307 261.226 50.924 260.337 50.9172 259.421C50.9035 257.603 50.8898 255.785 50.8762 253.967C50.8411 249.293 50.8067 244.618 50.7731 239.944C50.7697 239.475 50.7663 239.006 50.7628 238.523C50.7082 230.92 50.6621 223.317 50.6185 215.714C50.5735 207.91 50.5175 200.105 50.4522 192.3C50.416 187.918 50.385 183.535 50.3664 179.153C50.3488 175.032 50.318 170.911 50.277 166.79C50.2644 165.276 50.2566 163.762 50.254 162.248C50.2499 160.183 50.2282 158.12 50.2021 156.056C50.2051 155.455 50.208 154.853 50.2111 154.233C50.1532 151.196 50.0428 150.032 48.4313 147.6C46.5288 145.815 44.5557 144.462 42.4467 143.087C40.1032 141.128 39.8724 138.862 39.8506 135.516Z" fill="#DEB482"/>
<path d="M48.6072 144.277C49.3666 143.592 50.126 142.907 50.9083 142.201C50.8942 143.358 50.88 144.515 50.8654 145.707C51.4314 145.482 51.9974 145.258 52.5805 145.026C53.0563 148.835 53.126 152.476 53.0467 156.327C53.0373 156.922 53.0278 157.517 53.0181 158.13C52.9881 160.015 52.9544 161.901 52.9198 163.786C52.8742 166.28 52.8323 168.773 52.7927 171.267C52.7751 172.125 52.7751 172.125 52.7572 173C52.7207 175.313 52.7267 177.173 53.2978 179.391C53.6732 179.396 54.0486 179.4 54.4355 179.405C54.4241 180.331 54.4128 181.256 54.4011 182.209C53.5479 182.893 53.5479 182.893 52.6775 183.59C52.5027 185.446 52.436 187.138 52.4446 188.994C52.4384 189.798 52.4384 189.798 52.4321 190.618C52.4206 192.336 52.421 194.052 52.4217 195.77C52.4162 196.922 52.4099 198.074 52.4027 199.226C52.3908 201.343 52.3832 203.461 52.3813 205.578C52.3776 207.855 52.3635 210.13 52.3048 212.407C52.2732 213.784 52.2727 215.162 52.2742 216.539C52.4591 216.773 52.644 217.007 52.8344 217.247C52.8784 218.254 52.8836 219.263 52.8685 220.271C52.8607 221.091 52.8607 221.091 52.8527 221.928C52.7572 223.557 52.7572 223.557 52.4158 224.941C52.0798 226.754 52.3861 228.051 52.68 229.866C52.7135 231.37 52.7172 232.875 52.6959 234.38C52.688 235.145 52.6801 235.911 52.6719 236.699C52.5685 238.979 52.5685 238.979 52.2393 240.994C51.87 243.765 51.9853 246.351 52.1241 249.141C52.5497 258.498 52.5497 258.498 51.725 261.406C51.5994 263.917 51.5994 263.917 51.665 266.313C51.8499 266.547 52.0348 266.78 52.2252 267.021C52.2636 268.51 52.2626 270.001 52.2417 271.491C52.2331 272.306 52.2246 273.121 52.2159 273.961C52.1137 276.134 52.1137 276.134 51.5191 278.231C51.6782 279.405 51.8555 280.576 52.0451 281.743C52.0802 282.991 52.0888 284.241 52.0748 285.49C52.0669 286.19 52.0591 286.891 52.051 287.612C52.0399 288.336 52.0289 289.06 52.0175 289.806C52.0108 290.529 52.0042 291.253 51.9973 291.999C51.988 292.699 51.9787 293.4 51.9691 294.121C51.9607 294.756 51.9523 295.391 51.9436 296.045C51.8477 297.867 51.8477 297.867 51.5073 299.693C50.9945 302.852 52.0331 306.417 53.417 309.104C53.9773 309.342 54.5376 309.581 55.1149 309.826C54.9243 310.055 54.7338 310.284 54.5375 310.52C56.2184 311.235 57.8994 311.95 59.6313 312.686C59.8247 312.225 60.0181 311.765 60.2173 311.291C60.5327 311.404 60.8482 311.517 61.1732 311.634C64.3378 312.671 66.6462 312.677 69.879 312.11C70.2071 312.22 70.5353 312.33 70.8733 312.444C72.7255 313.019 74.573 312.954 76.4735 312.96C76.8869 312.965 77.3004 312.969 77.7263 312.973C79.042 312.985 80.3576 312.992 81.6733 312.999C82.5674 313.007 83.4614 313.015 84.3554 313.023C86.5428 313.042 88.7301 313.056 90.9175 313.069C90.9147 313.3 90.9119 313.531 90.9089 313.77C129.951 314.479 168.994 315.188 209.219 315.919C209.216 316.15 209.213 316.382 209.211 316.62C190.45 316.487 171.691 316.331 152.931 316.146C150.713 316.124 148.494 316.102 146.276 316.081C145.834 316.077 145.392 316.072 144.937 316.068C137.802 315.999 130.666 315.945 123.53 315.896C116.199 315.846 108.868 315.779 101.537 315.698C97.0198 315.648 92.5023 315.611 87.9844 315.59C84.5107 315.573 81.0374 315.533 77.564 315.485C76.146 315.468 74.7279 315.459 73.3098 315.458C57.9313 315.437 57.9313 315.437 51.6933 310.485C49.1116 306.287 48.8557 303.074 48.9236 297.945C48.9298 297.303 48.9361 296.662 48.9425 296.002C48.9642 293.845 48.9898 291.688 49.0154 289.531C49.0316 287.988 49.0476 286.445 49.0633 284.902C49.0976 281.575 49.1335 278.248 49.1706 274.921C49.2289 269.664 49.2817 264.406 49.3334 259.149C49.4062 251.78 49.4798 244.411 49.5553 237.043C49.5601 236.575 49.5649 236.107 49.5698 235.625C49.6477 228.043 49.7299 220.461 49.8132 212.878C49.8985 205.096 49.9773 197.313 50.0506 189.53C50.0921 185.16 50.1368 180.789 50.189 176.419C50.2381 172.31 50.2794 168.201 50.3147 164.092C50.329 162.582 50.3463 161.071 50.3668 159.561C50.3941 157.504 50.4111 155.447 50.4255 153.389C50.436 152.788 50.4465 152.186 50.4573 151.567C50.472 148.277 50.472 148.277 49.4342 145.296C49.0248 144.792 49.0248 144.792 48.6072 144.277Z" fill="#E9D2B4"/>
<path d="M241.016 42.1614C241.019 41.93 241.022 41.6987 241.025 41.4603C242.235 41.3388 243.445 41.2233 244.656 41.1104C245.33 41.0454 246.004 40.9805 246.698 40.9135C248.428 40.8498 248.428 40.8498 249.557 41.5648C248.456 131.557 247.354 221.549 246.22 314.268C246.032 314.266 245.844 314.264 245.651 314.262C245.939 284.76 246.227 255.259 246.516 225.758C246.551 222.255 246.585 218.751 246.619 215.247C246.626 214.55 246.633 213.852 246.64 213.134C246.75 201.926 246.86 190.718 246.969 179.51C247.082 167.961 247.195 156.413 247.308 144.864C247.372 138.397 247.435 131.931 247.498 125.465C247.766 97.9602 248.043 70.4564 248.402 42.9529C245.965 42.6917 243.527 42.4305 241.016 42.1614Z" fill="#C9A982"/>
<path d="M50.0383 306.258C51.1589 306.735 52.2795 307.211 53.4341 307.702C53.4285 308.165 53.4228 308.627 53.417 309.104C53.9773 309.342 54.5376 309.581 55.1149 309.826C54.9244 310.055 54.7338 310.284 54.5375 310.52C56.2185 311.235 57.8994 311.95 59.6313 312.686C59.8247 312.225 60.0181 311.765 60.2173 311.291C60.5328 311.404 60.8482 311.517 61.1732 311.634C64.3378 312.671 66.6462 312.677 69.879 312.11C70.2071 312.22 70.5353 312.33 70.8733 312.444C72.7255 313.019 74.573 312.954 76.4735 312.96C76.8869 312.965 77.3004 312.969 77.7264 312.973C79.042 312.985 80.3577 312.992 81.6733 312.999C82.5674 313.007 83.4614 313.015 84.3555 313.023C86.5428 313.042 88.7301 313.056 90.9175 313.069C90.9147 313.3 90.9119 313.531 90.909 313.77C129.951 314.479 168.994 315.188 209.219 315.919C209.216 316.15 209.214 316.382 209.211 316.62C190.45 316.487 171.691 316.331 152.931 316.146C150.713 316.124 148.494 316.102 146.276 316.081C145.834 316.077 145.392 316.072 144.937 316.068C137.802 315.999 130.666 315.945 123.53 315.896C116.199 315.846 108.868 315.779 101.537 315.698C97.0198 315.648 92.5023 315.611 87.9844 315.59C84.5107 315.573 81.0374 315.533 77.564 315.485C76.146 315.468 74.7279 315.459 73.3098 315.458C58.4264 315.438 58.4264 315.438 51.6933 310.485C50.0147 308.18 50.0147 308.18 50.0383 306.258Z" fill="#EFDFCB"/>
<path d="M44.1372 44.6597C44.1429 44.197 44.1485 43.7344 44.1544 43.2577C45.2853 42.4727 46.422 41.7003 47.5608 40.933C48.1931 40.5015 48.8255 40.07 49.4769 39.6254C53.4014 37.2493 57.5646 36.9034 61.8616 36.9907C62.3509 36.995 62.8401 36.9993 63.3442 37.0038C64.9722 37.0198 66.6 37.0457 68.2279 37.0717C69.4029 37.0853 70.578 37.0983 71.753 37.1108C74.9533 37.1466 78.1534 37.1911 81.3535 37.2374C84.7644 37.2854 88.1754 37.3258 91.5864 37.3673C97.3694 37.4387 103.152 37.5156 108.935 37.5959C114.747 37.6767 120.558 37.7529 126.37 37.8237C164.98 38.294 203.58 39.0172 242.179 40.0722C242.177 40.3035 242.174 40.5349 242.171 40.7732C241.786 40.7683 241.402 40.7633 241.006 40.7582C218.22 40.4636 195.433 40.1727 172.647 39.8865C169.911 39.8521 167.175 39.8178 164.438 39.7833C163.894 39.7765 163.349 39.7696 162.788 39.7626C153.969 39.6516 145.149 39.5381 136.33 39.4237C127.28 39.3064 118.23 39.1917 109.18 39.0796C103.597 39.0103 98.0127 38.9389 92.4289 38.8648C88.5994 38.8143 84.7699 38.7663 80.9403 38.7203C78.7312 38.6937 76.5221 38.666 74.313 38.6352C71.916 38.6018 69.519 38.5739 67.1219 38.5464C66.4264 38.5359 65.7308 38.5253 65.0142 38.5145C61.453 38.4786 57.9723 38.5026 54.445 39.1767C54.2516 39.6371 54.0582 40.0975 53.859 40.5719C52.8393 40.9045 52.8393 40.9045 51.5406 41.157C48.7778 41.7979 46.6168 43.0366 44.1372 44.6597Z" fill="#EDDCCA"/>
<path d="M40.6387 132.768C40.6476 131.644 40.6476 131.644 40.6567 130.498C40.6752 129.271 40.6752 129.271 40.6941 128.019C40.7026 127.155 40.7112 126.291 40.7201 125.4C40.7449 123.032 40.7749 120.664 40.8075 118.296C40.8407 115.817 40.8683 113.338 40.8969 110.859C40.9458 106.696 40.9995 102.533 41.0558 98.37C41.1209 93.558 41.1778 88.746 41.2304 83.9339C41.2759 79.8013 41.3257 75.6689 41.3793 71.5364C41.4112 69.0687 41.4417 66.601 41.4681 64.1332C41.4979 61.3823 41.537 58.6316 41.577 55.8809C41.5847 55.0628 41.5924 54.2448 41.6003 53.4019C41.6127 52.653 41.6251 51.9042 41.6378 51.1326C41.6504 50.1571 41.6504 50.1571 41.6633 49.1619C41.8362 47.3457 42.2328 46.2003 42.9996 44.6458C43.375 44.6504 43.7504 44.655 44.1373 44.6597C44.0387 45.1999 43.9401 45.74 43.8385 46.2966C43.4204 49.6284 43.3789 52.8986 43.3346 56.2632C43.3169 57.3684 43.3169 57.3684 43.2987 58.4959C43.2607 60.9243 43.2271 63.3526 43.1943 65.781C43.1703 67.4691 43.1464 69.1572 43.1224 70.8453C43.0732 74.3786 43.0267 77.9119 42.9814 81.4453C42.9228 85.9826 42.8535 90.5197 42.7818 95.0569C42.7286 98.54 42.683 102.023 42.6395 105.506C42.6173 107.18 42.5922 108.854 42.5643 110.527C42.5261 112.86 42.4985 115.193 42.4737 117.526C42.4599 118.222 42.4462 118.919 42.432 119.636C42.4274 120.269 42.4228 120.902 42.4181 121.554C42.4105 122.105 42.4029 122.657 42.3951 123.225C42.4595 123.669 42.5239 124.113 42.5903 124.571C43.4265 125.275 43.4265 125.275 44.2796 125.994C43.9014 126.221 43.5231 126.448 43.1334 126.681C42.863 131.649 42.863 131.649 43.5465 136.502C45.31 138.663 47.4286 139.3 49.7964 140.084C49.9672 141.475 50.1379 142.865 50.3138 144.298C42.9702 141.541 42.9702 141.541 41.2058 138.017C40.6468 136.166 40.6158 134.745 40.6387 132.768Z" fill="#D9B894"/>
<path d="M86.9185 314.422C86.9213 314.191 86.9242 313.959 86.9271 313.721C90.5697 313.094 94.0935 313.026 97.7642 313.109C98.3543 313.119 98.9444 313.129 99.5525 313.139C101.426 313.17 103.3 313.206 105.174 313.243C107.646 313.292 110.117 313.336 112.589 313.378C113.151 313.391 113.713 313.403 114.293 313.416C117.185 313.464 119.923 313.341 122.781 312.758C122.79 312.064 122.798 311.37 122.807 310.655C123.182 310.659 123.558 310.664 123.945 310.668C124.191 311.008 124.438 311.347 124.692 311.696C126.449 313.76 128.97 313.488 131.305 313.563C132.174 313.465 133.041 313.345 133.905 313.201C136.627 312.756 138.934 313.436 141.536 314.389C141.541 313.927 141.547 313.464 141.553 312.987C142.056 313.124 142.559 313.26 143.077 313.4C144.885 313.845 144.885 313.845 146.384 313.397C147.81 313.064 147.81 313.064 149.352 313.405C151.333 313.832 153.196 313.929 155.209 313.967C155.597 313.975 155.986 313.983 156.386 313.992C157.68 314.018 158.974 314.04 160.269 314.062C161.199 314.08 162.13 314.098 163.061 314.117C165.582 314.167 168.104 314.212 170.626 314.257C173.263 314.305 175.9 314.356 178.537 314.407C183.529 314.503 188.521 314.596 193.512 314.687C199.196 314.791 204.88 314.9 210.564 315.008C222.254 315.231 233.944 315.449 245.634 315.664C245.631 315.895 245.628 316.126 245.625 316.365C193.252 315.724 140.879 315.083 86.9185 314.422Z" fill="#DFC9AA"/>
<path d="M72.0018 45.7019C72.3083 44.1851 72.6049 42.9049 73.191 41.5096C72.8184 41.2737 72.4458 41.0377 72.0619 40.7946C72.0676 40.332 72.0732 39.8693 72.0791 39.3926C74.0363 37.9683 75.5352 37.8578 77.7843 37.8868C78.4857 37.8924 79.187 37.898 79.9097 37.9039C80.6878 37.9172 81.4659 37.9307 82.244 37.9444C83.0679 37.9537 83.8918 37.9625 84.7158 37.9706C86.9725 37.9949 89.2292 38.028 91.4858 38.0626C93.8953 38.0982 96.305 38.126 98.7146 38.1548C103.383 38.2121 108.052 38.2773 112.72 38.3455C116.482 38.4003 120.243 38.4522 124.005 38.5022C151.224 38.8649 178.442 39.3002 205.657 39.9103C207.797 39.9581 209.937 40.005 212.076 40.0519C215.389 40.125 218.702 40.2022 222.015 40.2831C223.208 40.3119 224.402 40.3397 225.595 40.3664C227.201 40.4028 228.807 40.4434 230.413 40.4854C230.877 40.4951 231.341 40.5048 231.819 40.5148C234.008 40.5768 236.059 40.7464 238.18 41.4255C238.178 41.6569 238.175 41.8882 238.172 42.1266C236.67 42.1082 235.168 42.0898 233.621 42.0709C233.616 42.5336 233.61 42.9962 233.604 43.473C232.538 43.1218 232.538 43.1218 231.45 42.7636C226.702 41.5439 221.857 41.6736 217.022 41.5774C215.892 41.5502 214.762 41.5225 213.632 41.4944C210.523 41.4192 207.414 41.3534 204.305 41.2902C202.337 41.2497 200.368 41.2072 198.4 41.164C188.212 40.9416 178.024 40.7508 167.835 40.5717C166.474 40.5477 165.113 40.5236 163.752 40.4995C150.353 40.2622 136.954 40.0494 123.554 39.8582C120.071 39.808 116.588 39.7528 113.105 39.6956C108.823 39.6254 104.54 39.563 100.257 39.5103C98.0452 39.4829 95.8334 39.4522 93.6217 39.4125C91.5788 39.376 89.536 39.3494 87.4929 39.3305C86.3984 39.3179 85.304 39.2949 84.2096 39.2715C80.4263 39.2479 77.4145 39.2511 74.5171 42.6515C74.2934 43.0148 74.0696 43.3781 73.8391 43.7524C73.4205 44.3981 73.002 45.0437 72.5707 45.7089C72.383 45.7066 72.1952 45.7043 72.0018 45.7019Z" fill="#C6A885"/>
<path d="M151.775 314.515C151.778 314.283 151.781 314.052 151.783 313.814C160.295 313.409 168.785 313.256 177.299 313.381C177.739 313.387 178.179 313.394 178.632 313.4C182.266 313.455 185.899 313.518 189.533 313.582C199.152 313.75 208.767 313.913 218.387 313.665C219.047 313.651 219.707 313.638 220.387 313.624C220.989 313.604 221.592 313.584 222.212 313.564C222.734 313.548 223.255 313.533 223.792 313.516C225.244 313.301 226.176 312.727 227.474 311.936C227.872 312.142 228.271 312.348 228.682 312.561C231.061 313.754 233.334 313.53 235.882 313.485C239.402 313.44 242.742 313.582 246.22 314.268C246.214 314.731 246.208 315.194 246.202 315.671C215.041 315.289 183.88 314.908 151.775 314.515Z" fill="#DCBA93"/>
<path d="M40.6366 132.936C40.6425 132.189 40.6485 131.442 40.6546 130.673C40.667 129.849 40.6793 129.026 40.6921 128.178C40.705 126.882 40.705 126.882 40.7181 125.56C40.743 123.186 40.773 120.812 40.8057 118.438C40.839 115.955 40.8667 113.472 40.8953 110.99C40.9443 106.818 40.9981 102.647 41.0545 98.4757C41.1197 93.6534 41.1768 88.8311 41.2295 84.0086C41.275 79.8701 41.3249 75.7318 41.3786 71.5934C41.4106 69.1209 41.4411 66.6485 41.4676 64.176C41.4974 61.4183 41.5366 58.6607 41.5767 55.9031C41.5844 55.0828 41.5922 54.2626 41.6001 53.4175C41.6125 52.6665 41.6249 51.9156 41.6377 51.142C41.6461 50.4898 41.6545 49.8377 41.6632 49.1658C41.836 47.3474 42.2317 46.2019 42.9996 44.6457C43.375 44.6503 43.7504 44.6549 44.1372 44.6597C44.0517 45.0637 43.9661 45.4677 43.8779 45.8839C42.9278 50.7505 42.7129 55.3792 42.678 60.3658C42.6623 61.6289 42.6623 61.6289 42.6462 62.9175C42.6189 65.2041 42.5966 67.4907 42.5766 69.7774C42.5544 72.1754 42.5257 74.5734 42.4977 76.9714C42.4457 81.5023 42.3996 86.0333 42.3556 90.5643C42.3052 95.7269 42.2482 100.889 42.1907 106.052C42.0727 116.663 41.9628 127.273 41.8584 137.884C40.4256 136.073 40.6078 135.425 40.6366 132.936Z" fill="#E2CDB6"/>
<path d="M41.5488 135.941C41.5871 134.659 41.6434 133.378 41.7159 132.098C41.7393 131.442 41.7627 130.786 41.7869 130.11C41.8468 128.493 41.9226 126.88 42.0128 125.265C42.7609 125.506 43.5089 125.746 44.2796 125.994C43.9014 126.221 43.5231 126.448 43.1334 126.681C42.863 131.649 42.863 131.649 43.5465 136.502C45.31 138.663 47.4286 139.3 49.7964 140.084C49.9672 141.475 50.1379 142.865 50.3138 144.298C49.533 144.004 48.755 143.701 47.978 143.393C47.5445 143.225 47.1109 143.057 46.6642 142.884C41.6462 140.272 41.6462 140.272 41.5488 135.941Z" fill="#E0C3A0"/>
<path d="M44.1372 44.6597C44.1429 44.197 44.1485 43.7344 44.1544 43.2577C45.2853 42.4727 46.422 41.7003 47.5608 40.933C48.1931 40.5015 48.8255 40.07 49.4769 39.6254C54.8773 36.4175 60.623 36.9799 66.453 37.1326C67.3339 37.1505 68.2149 37.1677 69.0959 37.1842C71.2367 37.2257 73.3772 37.276 75.5178 37.3312C75.515 37.5626 75.5121 37.7939 75.5092 38.0323C75.0533 38.0443 74.5974 38.0563 74.1277 38.0686C72.039 38.125 69.9504 38.1852 67.8617 38.2454C67.1446 38.2642 66.4275 38.283 65.6886 38.3024C60.0493 38.4476 60.0493 38.4476 54.445 39.1767C54.2516 39.6371 54.0582 40.0975 53.859 40.5719C52.8393 40.9045 52.8393 40.9045 51.5406 41.157C48.7778 41.7979 46.6168 43.0366 44.1372 44.6597Z" fill="#F0E8D8"/>
<path d="M62.2594 144.444C62.2764 143.056 62.2934 141.668 62.3109 140.238C63.4628 139.932 64.6148 139.627 65.7668 139.321C66.9958 138.959 66.9958 138.959 68.0336 137.503C68.5996 137.279 69.1656 137.054 69.7487 136.823C70.0218 137.52 70.0218 137.52 70.3004 138.232C70.107 138.692 69.9136 139.153 69.7144 139.627C69.339 139.622 68.9635 139.618 68.5767 139.613C68.571 140.076 68.5654 140.538 68.5595 141.015C67.613 141.907 67.613 141.907 66.3683 142.829C65.9619 143.137 65.5555 143.444 65.1368 143.761C63.9659 144.465 63.9659 144.465 62.2594 144.444Z" fill="#CDA06F"/>
<path d="M53.3998 310.506C55.353 309.062 56.8616 309.02 59.1054 309.174C59.3044 308.251 59.5035 307.328 59.7086 306.377C60.4441 308.255 61.1797 310.134 61.9153 312.013C58.4589 312.943 56.6094 312.292 53.3998 310.506ZM53.417 309.104C53.616 308.181 53.8151 307.258 54.0202 306.307C54.5663 307.702 54.5663 307.702 55.1235 309.125C54.5604 309.118 53.9972 309.111 53.417 309.104Z" fill="#DDBC99"/>
<path d="M72.0018 45.7019C72.3083 44.1851 72.6049 42.9049 73.191 41.5096C72.8184 41.2737 72.4458 41.0377 72.0619 40.7946C72.0676 40.332 72.0732 39.8693 72.0791 39.3926C73.9224 38.0787 75.2488 37.873 77.3591 37.9673C77.8663 37.9861 78.3736 38.005 78.8962 38.0244C79.4723 38.0559 79.4723 38.0559 80.06 38.088C78.8485 39.2029 77.6877 40.2115 76.3605 41.1102C74.6653 42.402 73.3862 43.9433 72.0018 45.7019Z" fill="#CDA375"/>
<path d="M50.0382 306.258C51.1589 306.735 52.2795 307.211 53.4341 307.702C53.4285 308.165 53.4228 308.627 53.417 309.104C53.9773 309.342 54.5376 309.581 55.1149 309.826C54.9243 310.055 54.7338 310.284 54.5375 310.52C56.2184 311.235 57.8994 311.95 59.6313 312.686C57.1869 313.406 56.6864 313.277 54.4821 312.141C53.9973 311.901 53.5126 311.661 53.0131 311.413C51.2792 310.194 50.0067 308.838 50.0382 306.258Z" fill="#F0DFCD"/>
<path d="M41.9736 123.197C41.9837 122.613 41.9938 122.029 42.0042 121.428C42.0138 120.798 42.0233 120.167 42.0332 119.518C42.0525 118.524 42.0525 118.524 42.0722 117.509C42.0829 116.844 42.0936 116.178 42.1047 115.493C42.1316 113.843 42.1612 112.193 42.193 110.543C42.3807 110.546 42.5685 110.548 42.7619 110.55C42.7194 114.02 42.6769 117.491 42.6332 121.066C43.1935 121.304 43.7538 121.542 44.3311 121.788C44.1377 122.248 43.9443 122.709 43.7451 123.183C44.3083 123.19 44.8714 123.197 45.4516 123.204C45.4431 123.898 45.4346 124.592 45.4259 125.307C44.4778 125.325 43.5291 125.312 42.5817 125.272C42.0214 124.564 42.0214 124.564 41.9736 123.197Z" fill="#DDB488"/>
<path d="M226.804 41.2863C226.806 41.055 226.809 40.8236 226.812 40.5853C228.175 40.5829 229.538 40.5857 230.901 40.5915C231.284 40.5903 231.668 40.5891 232.063 40.5879C234.182 40.6011 236.128 40.7743 238.18 41.4255C238.178 41.6569 238.175 41.8882 238.172 42.1266C236.67 42.1082 235.168 42.0898 233.621 42.0709C233.615 42.5336 233.61 42.9962 233.604 43.473C231.36 42.7514 229.116 42.0298 226.804 41.2863Z" fill="#CCAB80"/>
<path d="M118.782 314.111C118.785 313.88 118.788 313.648 118.791 313.41C120.108 313.195 121.424 312.979 122.781 312.758C122.79 312.064 122.798 311.37 122.807 310.655C123.182 310.659 123.558 310.664 123.945 310.668C124.191 311.009 124.436 311.349 124.69 311.699C125.887 313.098 126.658 313.142 128.286 313.307C128.745 313.359 129.204 313.41 129.677 313.464C130.027 313.494 130.376 313.525 130.736 313.556C130.734 313.788 130.731 314.019 130.728 314.257C126.786 314.209 122.844 314.161 118.782 314.111Z" fill="#E5C498"/>
<path d="M43.5341 47.4569C43.898 45.3755 44.4224 44.2294 45.8225 42.9658C48.3666 41.1686 50.2944 40.0539 53.2901 40.5649C53.2873 40.7962 53.2845 41.0276 53.2816 41.2659C51.9647 41.4812 50.6479 41.6964 49.2911 41.9182C49.2854 42.3809 49.2798 42.8436 49.2739 43.3203C48.7423 43.6175 48.2106 43.9147 47.6628 44.2208C46.1244 45.1979 45.2506 45.94 44.1029 47.4639C43.9152 47.4616 43.7275 47.4593 43.5341 47.4569Z" fill="#CCAF90"/>
<path d="M41.7074 57.2506C41.6959 55.673 41.6932 54.0954 41.6942 52.5177C41.6918 51.6392 41.6893 50.7606 41.6868 49.8555C41.8165 47.6265 42.0156 46.4811 42.9995 44.6458C43.375 44.6504 43.7504 44.655 44.1372 44.6597C43.5231 48.817 42.909 52.9743 42.2763 57.2575C42.0885 57.2552 41.9008 57.2529 41.7074 57.2506Z" fill="#E1CBB3"/>
<path d="M56.8129 310.548C57.1787 310.379 57.5445 310.21 57.9214 310.036C59.2104 309.304 59.2104 309.304 59.5502 307.689C59.6025 307.256 59.6547 306.823 59.7085 306.377C60.4441 308.255 61.1797 310.134 61.9153 312.013C60.9738 312.233 60.0324 312.452 59.0625 312.679C59.071 311.985 59.0795 311.291 59.0882 310.576C58.3373 310.567 57.5865 310.557 56.8129 310.548Z" fill="#E2C091"/>
<path d="M73.1567 44.3137C75.7267 40.2893 75.7267 40.2893 77.3753 39.545C77.851 39.5075 77.851 39.5075 78.3363 39.4691C78.325 40.3945 78.3136 41.3199 78.302 42.2733C77.3303 42.5651 77.3303 42.5651 76.3391 42.8628C75.6671 43.1148 74.9952 43.3669 74.3029 43.6266C74.1095 44.087 73.9162 44.5474 73.7169 45.0217C73.532 44.7881 73.3471 44.5545 73.1567 44.3137Z" fill="#D7AC7A"/>
<path d="M74.3287 41.5235C75.4285 38.82 75.4285 38.82 76.0781 38.0392C77.4055 38.0267 78.7333 38.042 80.06 38.0879C78.2594 39.9202 76.564 40.7404 74.3287 41.5235Z" fill="#AC865C"/>
<path d="M62.2594 144.444C63.0544 143.402 63.0544 143.402 63.9917 142.362C64.3671 142.366 64.7425 142.371 65.1293 142.375C65.3256 141.684 65.5218 140.992 65.7239 140.279C66.6653 140.059 67.6068 139.84 68.5767 139.613C68.571 140.076 68.5654 140.538 68.5595 141.015C67.613 141.907 67.613 141.907 66.3683 142.829C65.9619 143.137 65.5555 143.444 65.1368 143.761C63.9659 144.465 63.9659 144.465 62.2594 144.444Z" fill="#9C6F3E"/>
<path d="M52.1172 182.883C52.1398 181.032 52.1625 179.181 52.1858 177.274C52.5584 177.51 52.931 177.746 53.3149 177.989C53.3093 178.452 53.3036 178.915 53.2978 179.391C53.6732 179.396 54.0486 179.4 54.4355 179.405C54.4241 180.331 54.4128 181.256 54.4011 182.209C53.6474 182.431 52.8937 182.654 52.1172 182.883Z" fill="#E3BA8A"/>
<path d="M65.1465 140.973C65.1522 140.511 65.1579 140.048 65.1637 139.571C65.7297 139.347 66.2957 139.122 66.8788 138.891C67.2599 138.433 67.641 137.975 68.0336 137.503C68.5996 137.279 69.1656 137.054 69.7488 136.823C70.0218 137.52 70.0218 137.52 70.3004 138.232C69.7144 139.627 69.7144 139.627 68.658 140.058C68.2408 140.167 67.8237 140.275 67.3939 140.387C66.9752 140.5 66.5565 140.612 66.1252 140.728C65.8022 140.809 65.4793 140.89 65.1465 140.973Z" fill="#C19564"/>
<path d="M234.147 45.583C234.531 44.8936 234.915 44.2041 235.311 43.4938C236.243 43.968 237.176 44.4421 238.138 44.9307C237.759 45.1574 237.381 45.3842 236.991 45.6178C236.795 46.3095 236.599 47.0013 236.397 47.7139C236.215 47.249 236.033 46.784 235.845 46.3049C235.285 46.0667 234.724 45.8284 234.147 45.583Z" fill="#D0A570"/>
<path d="M46.3662 141.445C46.369 141.213 46.3718 140.982 46.3747 140.744C47.6859 140.991 48.9971 141.239 50.3481 141.493C50.149 142.416 49.95 143.34 49.7449 144.291C48.6075 143.362 47.4812 142.413 46.3662 141.445Z" fill="#D3BA99"/>
<path d="M136.289 45.7876C138.013 44.4064 138.013 44.4064 139.539 44.688C139.971 44.8379 140.403 44.9878 140.849 45.1422C140.465 45.8317 140.081 46.5211 139.685 47.2314C138.456 46.8616 137.419 46.5026 136.289 45.7876Z" fill="#DBAD7B"/>
</g>
<defs>
<clipPath id="clip0_9_49">
<rect width="350.545" height="284.441" fill="white" transform="translate(0 350.519) rotate(-89.2988)"/>
</clipPath>
</defs>
</svg>
