<svg width="306" height="322" viewBox="0 0 306 322" fill="none" xmlns="http://www.w3.org/2000/svg">
<path d="M39.7864 127.03C39.7817 126.213 39.7769 125.396 39.772 124.555C39.7791 123.657 39.7865 122.76 39.794 121.863C39.7932 120.912 39.7913 119.961 39.7885 119.01C39.7841 116.434 39.7951 113.858 39.8096 111.281C39.8228 108.583 39.8241 105.885 39.8273 103.186C39.8347 98.656 39.8523 94.1258 39.8757 89.5955C39.9026 84.3596 39.912 79.1239 39.9122 73.888C39.9129 69.3896 39.9231 64.8913 39.9412 60.393C39.952 57.7075 39.9595 55.0222 39.9584 52.3368C39.958 49.8125 39.9694 47.2886 39.9901 44.7644C39.9957 43.8386 39.9972 42.9128 39.9942 41.987C39.9909 40.7224 40.004 39.4577 40.018 38.1932C40.0221 37.1322 40.0221 37.1322 40.0263 36.0497C40.4139 33.6874 41.1959 32.6353 42.7825 30.9453C44.9133 29.8498 47.0772 29.019 49.2993 28.1517C51.9191 26.8048 53.1595 25.1743 54.4531 22.4637C54.989 21.3409 54.989 21.3409 56.2088 20.7017C57.4834 20.6057 58.7608 20.5495 60.0381 20.5116C60.84 20.4873 61.642 20.4629 62.4682 20.4377C63.3502 20.4146 64.2323 20.3918 65.1143 20.3693C65.5635 20.357 66.0127 20.3448 66.4756 20.3321C75.8292 20.0779 85.1797 20.0379 94.5361 20.0657C96.8288 20.0718 99.1216 20.0742 101.414 20.0772C105.869 20.0836 110.323 20.0933 114.777 20.1046C118.395 20.1137 122.013 20.1218 125.631 20.1292C135.92 20.1504 146.21 20.1742 156.5 20.2015C157.326 20.2037 157.326 20.2037 158.168 20.2059C158.719 20.2074 159.27 20.2089 159.838 20.2104C168.826 20.2341 177.813 20.2513 186.801 20.2657C196.062 20.2806 205.322 20.3003 214.582 20.325C219.769 20.3387 224.956 20.3505 230.143 20.3571C234.543 20.3627 238.943 20.3728 243.343 20.3886C245.587 20.3966 247.831 20.4024 250.075 20.4027C252.502 20.4031 254.929 20.4134 257.356 20.4247C258.071 20.4232 258.786 20.4218 259.523 20.4203C260.168 20.425 260.814 20.4296 261.479 20.4344C262.32 20.4364 262.32 20.4364 263.177 20.4384C264.512 20.6022 264.512 20.6022 265.727 21.8902C265.842 23.422 265.881 24.8789 265.866 26.4111C265.867 27.1208 265.867 27.1208 265.867 27.8448C265.867 29.4465 265.858 31.048 265.849 32.6497C265.847 33.803 265.846 34.9564 265.844 36.1097C265.84 39.2918 265.828 42.4737 265.815 45.6557C265.802 49.0824 265.796 52.5091 265.789 55.9357C265.775 62.6535 265.754 69.3711 265.731 76.0888C265.704 83.9033 265.684 91.7179 265.664 99.5324C265.628 113.47 265.586 127.408 265.541 141.346C265.497 154.887 265.457 168.427 265.422 181.968C265.419 183.219 265.419 183.219 265.416 184.496C265.413 185.328 265.411 186.161 265.409 187.018C265.369 202.411 265.326 217.804 265.28 233.196C265.264 238.65 265.249 244.104 265.235 249.558C265.217 256.2 265.197 262.841 265.174 269.482C265.162 272.874 265.152 276.266 265.144 279.658C265.136 282.758 265.126 285.858 265.114 288.957C265.109 290.084 265.106 291.211 265.105 292.337C265.102 293.858 265.095 295.379 265.088 296.9C265.085 297.748 265.083 298.596 265.08 299.47C264.998 301.34 264.998 301.34 264.387 301.98C263.34 302.045 262.29 302.065 261.24 302.067C260.554 302.07 259.867 302.074 259.16 302.077C258.396 302.077 257.632 302.077 256.846 302.077C256.033 302.079 255.221 302.082 254.409 302.085C252.167 302.091 249.924 302.094 247.682 302.096C245.76 302.098 243.839 302.103 241.918 302.108C223.681 302.151 205.444 302.145 187.207 302.132C184.831 302.13 182.454 302.128 180.077 302.127C179.486 302.126 178.895 302.126 178.287 302.126C168.735 302.12 159.183 302.137 149.631 302.162C139.82 302.188 130.009 302.192 120.197 302.175C114.691 302.166 109.184 302.167 103.678 302.192C98.983 302.215 94.289 302.217 89.5945 302.194C87.2023 302.182 84.811 302.18 82.4189 302.204C63.3903 302.38 63.3903 302.38 55.4921 295.654C53.6398 293.426 52.9905 291.522 52.9984 288.575C52.9982 287.787 52.9982 287.787 52.9981 286.982C53.0026 286.117 53.0026 286.117 53.0071 285.234C53.0083 284.314 53.0083 284.314 53.0094 283.375C53.0125 281.311 53.02 279.248 53.0273 277.184C53.0303 275.708 53.033 274.231 53.0354 272.755C53.0409 269.572 53.0481 266.389 53.0563 263.206C53.0687 258.175 53.074 253.143 53.0777 248.112C53.0783 247.255 53.079 246.399 53.0796 245.542C53.0806 244.243 53.0816 242.944 53.0825 241.646C53.0862 236.749 53.0907 231.853 53.096 226.956C53.0968 226.285 53.0968 226.285 53.0975 225.6C53.1057 218.345 53.1229 211.09 53.1428 203.834C53.163 196.387 53.1714 188.94 53.17 181.492C53.1696 177.31 53.1749 173.128 53.1932 168.946C53.2104 165.014 53.2136 161.081 53.2059 157.149C53.2056 155.704 53.2106 154.259 53.221 152.814C53.2346 150.845 53.2295 148.876 53.2197 146.906C53.2281 146.332 53.2366 145.758 53.2452 145.166C53.2108 142.338 53.1144 141.184 51.4218 138.881C49.1657 137.091 46.941 136.569 44.2388 135.846C40.6615 134.127 39.7813 130.941 39.7864 127.03Z" fill="#EDE7DA"/>
<path d="M53.4628 139.542C54.7601 140.917 54.1545 144.069 54.1515 145.97C54.1529 146.584 54.1543 147.199 54.1557 147.832C54.1597 149.907 54.1594 151.983 54.1591 154.058C54.161 155.539 54.1633 157.02 54.1658 158.502C54.1718 162.536 54.174 166.571 54.1756 170.606C54.1779 174.818 54.1837 179.029 54.189 183.241C54.1977 190.314 54.204 197.387 54.2088 204.46C54.2138 211.747 54.22 219.034 54.228 226.321C54.2285 226.77 54.2289 227.219 54.2295 227.681C54.2319 229.933 54.2344 232.184 54.2369 234.436C54.2576 253.128 54.2739 271.82 54.2874 290.512C56.1942 291.188 56.7158 291.118 58.5509 290.523C58.3833 289.767 58.3833 289.767 58.2123 288.996C57.9922 287.027 58.0147 285.666 58.245 283.738C58.6074 280.279 58.6542 276.873 58.6336 273.396C58.633 272.761 58.6323 272.126 58.6316 271.471C58.6288 268.788 58.6188 266.105 58.609 263.422C58.5841 255.295 58.6885 247.235 59.2939 239.131C59.4949 239.132 59.6959 239.132 59.903 239.133C59.9108 239.758 59.9108 239.758 59.9187 240.395C59.9742 244.816 60.0324 249.236 60.0919 253.657C60.1137 255.296 60.1348 256.936 60.1552 258.576C60.2146 263.32 60.2867 268.064 60.3768 272.808C60.4044 274.336 60.4281 275.865 60.4479 277.394C60.477 279.531 60.5212 281.667 60.5693 283.803C60.5749 284.438 60.5806 285.073 60.5864 285.728C60.6847 289.259 60.9636 291.128 63.4151 293.748C63.414 294.172 63.4129 294.596 63.4117 295.032C63.8008 295.153 64.1899 295.273 64.5908 295.397C65.2115 295.856 65.2115 295.856 65.8446 296.324C66.0418 297.808 66.2389 299.293 66.442 300.822C131.765 300.992 197.087 301.163 264.389 301.338C264.389 301.55 264.388 301.762 264.387 301.98C239.269 302.047 214.15 302.084 189.031 302.079C186.061 302.079 183.092 302.079 180.123 302.078C179.532 302.078 178.941 302.078 178.332 302.078C168.776 302.079 159.22 302.099 149.664 302.128C139.85 302.156 130.036 302.163 120.222 302.149C114.172 302.141 108.123 302.15 102.072 302.181C97.917 302.201 93.7619 302.199 89.6064 302.181C87.213 302.171 84.8204 302.17 82.4271 302.195C63.3892 302.382 63.3892 302.382 55.4922 295.654C53.6393 293.426 52.9931 291.516 52.9882 288.57C52.9858 288.043 52.9835 287.516 52.9811 286.973C52.9816 286.395 52.9821 285.817 52.9826 285.221C52.9808 284.606 52.9789 283.991 52.977 283.358C52.9716 281.29 52.9705 279.221 52.9694 277.153C52.9664 275.674 52.9632 274.194 52.9597 272.715C52.9511 268.691 52.9463 264.667 52.9423 260.642C52.9377 256.438 52.9302 252.234 52.9231 248.03C52.9109 240.517 52.902 233.005 52.8942 225.492C52.8869 218.675 52.8765 211.859 52.8638 205.042C52.849 197.131 52.8363 189.221 52.8266 181.31C52.8215 177.12 52.8155 172.931 52.8074 168.741C52.7999 164.804 52.7953 160.867 52.7932 156.93C52.7919 155.481 52.7895 154.032 52.786 152.583C52.7815 150.613 52.7807 148.643 52.7809 146.673C52.7787 146.093 52.7765 145.513 52.7742 144.916C52.7805 140.971 52.7805 140.971 53.4628 139.542Z" fill="#6F6B64"/>
<path d="M58.6598 248.766C58.6668 235.146 58.6808 221.527 58.7031 207.907C58.7133 201.583 58.7213 195.26 58.7238 188.936C58.726 183.426 58.7325 177.916 58.7442 172.405C58.7502 169.486 58.7541 166.568 58.7528 163.649C58.7517 160.903 58.7563 158.158 58.7653 155.412C58.7676 154.403 58.7678 153.394 58.7658 152.384C58.7633 151.009 58.7683 149.635 58.7752 148.259C58.7766 147.104 58.7766 147.104 58.7779 145.925C58.9327 144.053 58.9327 144.053 60.1559 142.129C61.2351 143.273 60.8326 144.799 60.8326 146.32C60.8295 146.833 60.8264 147.346 60.8232 147.874C60.8219 148.686 60.8219 148.686 60.8205 149.513C60.8167 151.34 60.8086 153.167 60.8005 154.994C60.797 156.298 60.7937 157.602 60.7906 158.906C60.7815 162.457 60.7687 166.009 60.7552 169.561C60.7417 173.268 60.7317 176.975 60.7213 180.683C60.7011 187.708 60.6778 194.734 60.6534 201.76C60.6257 209.756 60.6015 217.752 60.5776 225.748C60.5284 242.202 60.4748 258.656 60.4183 275.11C60.2173 275.109 60.0163 275.109 59.8092 275.108C59.6309 266.416 59.4526 257.723 59.2688 248.768C59.0678 248.767 58.8668 248.767 58.6598 248.766Z" fill="#D2CABD"/>
<path d="M60.358 298.237C62.6454 296.958 62.6454 296.958 64.0158 296.961C64.0169 296.537 64.018 296.113 64.0191 295.676C64.6216 295.89 65.224 296.104 65.8447 296.324C66.0418 297.808 66.2389 299.293 66.442 300.822C131.765 300.992 197.087 301.163 264.389 301.338C264.389 301.55 264.388 301.762 264.387 301.98C239.186 301.988 213.984 301.979 188.782 301.947C185.807 301.944 182.831 301.94 179.856 301.937C179.263 301.936 178.671 301.935 178.061 301.934C168.47 301.923 158.879 301.924 149.289 301.928C139.447 301.933 129.606 301.925 119.764 301.906C113.692 301.894 107.62 301.892 101.547 301.903C97.383 301.909 93.2186 301.903 89.0542 301.888C86.6517 301.88 84.2495 301.877 81.8471 301.888C79.6455 301.897 77.4444 301.892 75.2429 301.876C74.0735 301.871 72.904 301.881 71.7346 301.893C67.1703 301.839 64.087 301.073 60.358 298.237Z" fill="#969289"/>
<path d="M58.8171 188.379C58.8039 182.633 58.7972 176.887 58.7989 171.141C58.7995 168.472 58.7979 165.804 58.791 163.136C58.7845 160.562 58.7839 157.988 58.7875 155.414C58.7878 154.431 58.7859 153.448 58.7819 152.465C58.7767 151.09 58.779 149.715 58.7832 148.34C58.7825 147.557 58.7819 146.774 58.7812 145.967C58.9327 144.053 58.9327 144.053 60.1558 142.129C61.336 143.38 60.8299 145.269 60.8281 146.93C60.8244 147.528 60.8207 148.126 60.8168 148.743C60.8152 149.37 60.8137 149.996 60.8121 150.642C60.8063 152.724 60.7961 154.806 60.7859 156.888C60.781 158.328 60.7764 159.767 60.772 161.207C60.7598 165.003 60.7439 168.8 60.7273 172.597C60.711 176.468 60.6981 180.339 60.6849 184.21C60.6586 191.811 60.6284 199.413 60.5958 207.014C60.3948 207.013 60.1938 207.013 59.9867 207.012C59.8017 200.864 59.6168 194.716 59.4262 188.381C59.2252 188.38 59.0242 188.38 58.8171 188.379Z" fill="#D8D0C3"/>
<path d="M39.949 127.163C39.9494 126.344 39.9499 125.524 39.9504 124.679C39.9571 123.772 39.9639 122.865 39.9707 121.959C39.9736 121.002 39.9759 120.046 39.9777 119.09C39.9841 116.496 39.998 113.901 40.0133 111.306C40.028 108.595 40.0358 105.883 40.0443 103.171C40.0614 98.0359 40.0848 92.901 40.1104 87.766C40.1393 81.9199 40.1612 76.0738 40.1826 70.2277C40.2267 58.2021 40.2794 46.1766 40.3379 34.151C40.5389 34.1516 40.7399 34.1521 40.947 34.1526C40.8641 65.9521 40.7812 97.7515 40.6958 130.515C41.2988 130.516 41.9018 130.518 42.523 130.519C42.9211 132.004 43.3192 133.489 43.7294 135.019C42.3162 134.419 41.4666 134.001 40.6185 132.641C39.9362 130.741 39.9405 129.196 39.949 127.163Z" fill="#A9A7A0"/>
<path d="M58.859 172.319C58.8393 168.329 58.8276 164.338 58.8233 160.348C58.8207 158.99 58.8159 157.632 58.8089 156.275C58.7993 154.324 58.7974 152.374 58.7971 150.424C58.7924 149.816 58.7877 149.207 58.7829 148.58C58.7843 148.015 58.7856 147.449 58.7871 146.866C58.7857 146.368 58.7842 145.87 58.7828 145.357C58.9327 144.053 58.9327 144.053 60.1558 142.129C60.7632 142.773 60.7632 142.773 60.8163 145.225C60.8096 146.241 60.7997 147.257 60.787 148.273C60.7829 148.791 60.7788 149.309 60.7745 149.843C60.764 151.127 60.7497 152.41 60.7348 153.694C60.5338 153.693 60.3328 153.693 60.1257 153.692C59.9087 159.84 59.6917 165.987 59.4681 172.321C59.2671 172.32 59.0661 172.319 58.859 172.319Z" fill="#E0D8CB"/>
<path d="M39.9557 127.738C39.9575 127.056 39.9594 126.375 39.9613 125.673C39.9695 124.941 39.9777 124.21 39.9861 123.456C39.9917 122.328 39.9917 122.328 39.9973 121.177C40.0104 118.775 40.0319 116.373 40.0537 113.971C40.0641 112.342 40.0739 110.713 40.0831 109.085C40.1069 105.092 40.1377 101.1 40.1738 97.1075C40.3748 97.108 40.5758 97.1085 40.7829 97.1091C40.7541 108.133 40.7254 119.157 40.6958 130.515C41.2988 130.516 41.9017 130.518 42.523 130.519C42.9211 132.004 43.3192 133.489 43.7294 135.019C42.2936 134.409 41.4611 134.001 40.6181 132.605C39.9856 130.885 39.9425 129.582 39.9557 127.738Z" fill="#C3C0B9"/>
<path d="M54.4722 292.64C54.6814 291.905 54.6814 291.905 54.8948 291.156C55.8998 291.158 56.9047 291.161 57.9401 291.164C58.1395 291.8 58.3388 292.437 58.5442 293.092C59.0141 293.551 59.0141 293.551 59.4934 294.018C60.3664 295.024 60.3664 295.024 60.3597 297.594C56.5182 296.59 56.5182 296.59 54.8836 295.452C54.2774 294.366 54.2774 294.366 54.4722 292.64Z" fill="#C3BFB4"/>
<path d="M57.9351 293.091C58.1383 292.243 58.3415 291.396 58.5509 290.523C60.3764 291.17 60.3764 291.17 61.3993 293.06C62.1936 295.029 62.1936 295.029 62.1902 296.314C62.5917 296.527 62.9931 296.74 63.4067 296.96C62.4012 297.169 61.3957 297.378 60.3597 297.594C60.026 296.26 59.757 295.123 59.7607 293.738C59.1582 293.525 58.5558 293.311 57.9351 293.091Z" fill="#D9D2C3"/>
<path d="M71.0158 113.301C71.0388 112.608 71.0618 111.915 71.0855 111.201C71.1038 110.503 71.1222 109.805 71.141 109.085C71.1749 108.284 71.1749 108.284 71.2095 107.467C71.8125 107.469 72.4154 107.47 73.0367 107.472C73.0284 110.652 73.0201 113.832 73.0116 117.108C71.1894 115.176 71.1894 115.176 71.0158 113.301Z" fill="#E2DCCC"/>
<path d="M60.3815 289.243C62.7322 292.863 62.7322 292.863 63.4117 295.032C63.8132 295.245 64.2146 295.459 64.6282 295.678C64.2251 296.101 63.822 296.524 63.4067 296.96C61.1202 294.882 59.3773 292.391 60.3815 289.243Z" fill="#C2BAAC"/>
<path d="M60.358 298.237C61.7944 297.322 62.4813 296.902 64.1674 297.203C64.5188 297.336 64.8702 297.469 65.2322 297.607C65.2306 298.243 65.2289 298.879 65.2272 299.534C62.9636 299.657 62.3204 299.624 60.358 298.237Z" fill="#A5A098"/>
<path d="M63.3983 300.172C64.0019 299.961 64.6054 299.751 65.2272 299.534C64.8286 298.261 64.4299 296.988 64.0191 295.676C64.6216 295.89 65.224 296.104 65.8447 296.324C66.0418 297.808 66.2389 299.293 66.442 300.822C65.4376 300.607 64.4332 300.393 63.3983 300.172Z" fill="#9E998E"/>
<path d="M47.3788 136.956C47.3793 136.744 47.3799 136.532 47.3804 136.314C50.1986 136.114 51.8144 136.425 54.0752 138.258C54.0741 138.682 54.073 139.106 54.0718 139.543C51.6881 139.034 49.5906 137.995 47.3788 136.956Z" fill="#AEACA4"/>
<path d="M71.7616 129.311C71.9698 126.555 72.1779 123.8 72.3924 120.961C72.5934 120.961 72.7944 120.962 73.0015 120.962C73.1171 122.113 73.2273 123.265 73.3351 124.416C73.428 125.378 73.428 125.378 73.5228 126.359C73.5921 128.031 73.5921 128.031 72.9797 129.314C72.5777 129.313 72.1758 129.312 71.7616 129.311Z" fill="#DDD5C9"/>
<path d="M66.4537 296.325C68.2748 298.659 68.2748 298.659 68.2692 300.827C67.6662 300.825 67.0632 300.824 66.442 300.822C65.878 298.887 65.8123 298.337 66.4537 296.325Z" fill="#DFD8CA"/>
</svg>
