<svg width="304" height="323" viewBox="0 0 304 323" fill="none" xmlns="http://www.w3.org/2000/svg">
<g clip-path="url(#clip0_9_44)">
<path d="M266.693 44.3362C266.737 45.1018 266.782 45.8674 266.827 46.6562C267.214 53.7521 267.433 60.8561 267.605 67.9612C267.721 72.71 267.888 77.4412 268.189 82.1811C270.12 113.369 270.12 113.369 264.744 121.382C261.594 124.923 257.923 127.789 254.257 130.696C245.767 137.463 238.875 144.159 237.147 155.703C236.047 164.418 235.914 173.209 235.909 181.99C235.908 182.759 235.908 183.528 235.907 184.32C235.922 193.908 236.172 203.483 236.503 213.064C236.838 222.923 236.973 232.785 237.117 242.649C237.151 245.033 237.187 247.418 237.223 249.802C237.24 250.962 237.24 250.962 237.258 252.145C237.33 256.701 237.436 261.254 237.573 265.808C237.658 268.636 237.731 271.464 237.804 274.292C237.841 275.593 237.884 276.894 237.933 278.195C238.317 288.38 237.429 297.195 230.975 305.263C225.272 311.483 218.25 315.526 210.004 315.839C208.896 315.845 207.789 315.847 206.681 315.846C205.763 315.849 205.763 315.849 204.826 315.853C202.776 315.86 200.726 315.861 198.676 315.863C197.205 315.866 195.734 315.87 194.263 315.875C190.268 315.885 186.274 315.891 182.279 315.894C179.782 315.897 177.284 315.9 174.787 315.903C166.97 315.914 159.153 315.922 151.336 315.925C142.319 315.929 133.303 315.943 124.287 315.967C117.313 315.984 110.339 315.992 103.365 315.993C99.2016 315.994 95.0387 315.999 90.8757 316.013C86.9576 316.027 83.0396 316.028 79.1214 316.021C77.6871 316.021 76.2527 316.024 74.8183 316.032C63.633 316.091 54.7224 315.322 46.2086 306.79C40.6789 300.567 37.9134 294.061 37.898 285.473C37.8946 284.59 37.8913 283.707 37.8878 282.798C37.8879 281.832 37.8881 280.866 37.8882 279.871C37.884 278.328 37.884 278.328 37.8797 276.752C37.8721 273.897 37.8693 271.042 37.8673 268.186C37.8643 265.106 37.857 262.025 37.8504 258.945C37.8354 251.507 37.8277 244.069 37.8209 236.631C37.8176 233.126 37.8135 229.621 37.8096 226.117C37.7966 214.464 37.7856 202.811 37.7801 191.159C37.7787 188.136 37.7772 185.113 37.7757 182.09C37.7753 181.339 37.775 180.588 37.7746 179.814C37.7683 167.646 37.749 155.478 37.7244 143.309C37.6992 130.811 37.6855 118.312 37.6831 105.814C37.6815 98.7988 37.6748 91.7837 37.6554 84.7685C37.6389 78.7939 37.6328 72.8193 37.6402 66.8447C37.6436 63.7983 37.6422 60.7522 37.6274 57.7059C37.6115 54.3975 37.6193 51.0897 37.6293 47.7812C37.621 46.8264 37.6127 45.8716 37.6041 44.8879C37.6767 34.9142 40.5448 27.4515 46.9775 20.2632C53.8975 13.2665 61.8789 11.9895 71.0888 11.9991C71.8135 11.9967 72.5383 11.9943 73.285 11.9918C75.7107 11.9848 78.1365 11.9836 80.5623 11.9824C82.3027 11.9786 84.0431 11.9746 85.7836 11.9702C90.5101 11.9596 95.2366 11.9544 99.9632 11.9508C102.917 11.9485 105.871 11.9451 108.825 11.9415C117.011 11.9318 125.197 11.9234 133.383 11.9206C133.907 11.9205 134.43 11.9203 134.969 11.9201C135.494 11.9199 136.018 11.9198 136.559 11.9196C137.622 11.9192 138.685 11.9189 139.748 11.9185C140.275 11.9183 140.803 11.9181 141.346 11.918C149.887 11.9148 158.428 11.9007 166.969 11.8819C175.748 11.8627 184.527 11.8529 193.306 11.8517C198.231 11.8509 203.156 11.8461 208.081 11.8317C212.714 11.8184 217.348 11.8166 221.981 11.8237C223.679 11.8243 225.377 11.8208 227.075 11.8128C229.399 11.8026 231.722 11.8073 234.045 11.8157C234.712 11.8092 235.379 11.8027 236.066 11.796C242.373 11.8491 248.166 13.4543 253.555 17.008C254.192 17.417 254.829 17.8261 255.485 18.2476C255.945 18.6213 256.406 18.995 256.88 19.38C256.88 19.9129 256.88 20.4459 256.88 20.995C257.382 20.995 257.883 20.995 258.4 20.995C259.632 22.5059 259.632 22.5059 261.013 24.5783C261.466 25.2434 261.92 25.9086 262.387 26.5939C265.426 32.2383 266.376 37.9115 266.693 44.3362Z" fill="#3F3F3F"/>
<path d="M266.669 44.3618C266.711 45.13 266.753 45.8982 266.796 46.6897C267.16 53.8028 267.366 60.9236 267.526 68.0449C267.635 72.8054 267.791 77.5502 268.075 82.3029C270.028 115.909 270.028 115.909 260.23 128.311C254.585 134.984 247.699 142.707 240.16 146.965C239.157 146.965 238.154 146.965 237.12 146.965C237.119 146.398 237.118 145.831 237.117 145.247C237.088 131.43 237.044 117.613 236.98 103.795C236.95 97.1134 236.925 90.4314 236.914 83.7493C236.904 77.9226 236.884 72.0961 236.851 66.2694C236.833 63.1866 236.821 60.104 236.822 57.0211C236.823 54.1139 236.809 51.2072 236.785 48.3002C236.775 46.7357 236.781 45.171 236.786 43.6065C236.726 38.1707 236.155 33.9319 233.97 28.9873C233.32 27.455 233.32 27.455 233.32 25.84C232.568 25.5735 231.815 25.307 231.04 25.0325C231.04 24.2331 231.04 23.4336 231.04 22.61C230.037 22.077 229.034 21.5441 228 20.995C228 20.462 228 19.9291 228 19.38C226.997 19.1135 225.994 18.847 224.96 18.5725C224.96 18.0395 224.96 17.5066 224.96 16.9575C224.443 16.8742 223.925 16.7909 223.393 16.7052C220.682 16.0311 218.377 14.943 215.84 13.7275C215.84 13.461 215.84 13.1945 215.84 12.92C219.894 12.799 223.947 12.7117 228.003 12.6539C229.378 12.6297 230.753 12.5968 232.128 12.5545C240.783 12.2952 247.218 12.4508 254.6 17.765C255.352 18.2979 256.105 18.8309 256.88 19.38C256.88 19.9129 256.88 20.4459 256.88 20.995C257.382 20.995 257.883 20.995 258.4 20.995C259.632 22.5059 259.632 22.5059 261.013 24.5783C261.466 25.2434 261.92 25.9086 262.387 26.5939C265.434 32.2535 266.374 37.9191 266.669 44.3618Z" fill="#2D2D2D"/>
<path d="M266 36.3375C266.053 47.1539 266.093 57.9703 266.118 68.7869C266.13 73.809 266.146 78.831 266.172 83.853C266.197 88.6961 266.21 93.539 266.216 98.3822C266.221 100.233 266.229 102.085 266.241 103.936C266.258 106.521 266.26 109.106 266.259 111.692C266.267 112.464 266.275 113.236 266.284 114.031C266.281 114.733 266.277 115.435 266.274 116.158C266.277 117.076 266.277 117.076 266.281 118.012C266.188 118.507 266.095 119.001 266 119.51C264.871 120.309 264.871 120.309 263.72 121.125C263.469 119.793 263.218 118.46 262.96 117.087C263.712 116.688 263.712 116.688 264.48 116.28C264.731 89.899 264.982 63.5179 265.24 36.3375C265.491 36.3375 265.742 36.3375 266 36.3375Z" fill="#454545"/>
<path d="M266 108.205C266.061 110.055 266.106 111.906 266.143 113.757C266.182 115.302 266.182 115.302 266.223 116.879C266.149 117.747 266.076 118.616 266 119.51C265.248 120.043 264.495 120.576 263.72 121.125C263.469 119.793 263.218 118.46 262.96 117.088C263.462 116.821 263.963 116.555 264.48 116.28C264.835 114.378 264.835 114.378 264.955 112.192C265.012 111.45 265.069 110.708 265.127 109.943C265.183 109.083 265.183 109.083 265.24 108.205C265.491 108.205 265.742 108.205 266 108.205Z" fill="#484848"/>
</g>
<defs>
<clipPath id="clip0_9_44">
<rect width="323" height="304" fill="white" transform="matrix(0 1 -1 0 304 0)"/>
</clipPath>
</defs>
</svg>
