<svg width="48" height="48" viewBox="0 0 48 48" fill="none" xmlns="http://www.w3.org/2000/svg">
<path d="M36 42H12C8.686 42 6 39.314 6 36V12C6 8.686 8.686 6 12 6H36C39.314 6 42 8.686 42 12V36C42 39.314 39.314 42 36 42Z" fill="url(#paint0_linear_29_2)"/>
<path d="M36 7C38.756 7 41 9.244 41 12V36C41 38.756 38.756 41 36 41H12C9.244 41 7 38.756 7 36V12C7 9.244 9.244 7 12 7H36ZM36 6H12C8.686 6 6 8.686 6 12V36C6 39.314 8.686 42 12 42H36C39.314 42 42 39.314 42 36V12C42 8.686 39.314 6 36 6Z" fill="url(#paint1_linear_29_2)"/>
<path d="M26.806 24.0001L32.43 18.3761C33.198 17.6081 33.198 16.3601 32.43 15.5921L32.408 15.5701C31.64 14.8021 30.392 14.8021 29.624 15.5701L24 21.1941L18.376 15.5701C17.608 14.8021 16.36 14.8021 15.592 15.5701L15.57 15.5921C14.802 16.3621 14.802 17.6081 15.57 18.3761L21.194 24.0001L15.57 29.6241C14.802 30.3921 14.802 31.6401 15.57 32.4081L15.592 32.4301C16.36 33.1981 17.608 33.1981 18.376 32.4301L24 26.8061L29.624 32.4301C30.392 33.1981 31.64 33.1981 32.408 32.4301L32.43 32.4081C33.198 31.6401 33.198 30.3921 32.43 29.6241L26.806 24.0001Z" fill="url(#paint2_linear_29_2)"/>
<defs>
<linearGradient id="paint0_linear_29_2" x1="7.758" y1="7.758" x2="40.242" y2="40.242" gradientUnits="userSpaceOnUse">
<stop stop-color="white" stop-opacity="0.6"/>
<stop offset="1" stop-color="white" stop-opacity="0.3"/>
</linearGradient>
<linearGradient id="paint1_linear_29_2" x1="7.758" y1="7.758" x2="40.242" y2="40.242" gradientUnits="userSpaceOnUse">
<stop stop-color="white" stop-opacity="0.6"/>
<stop offset="0.493" stop-color="white" stop-opacity="0"/>
<stop offset="0.997" stop-color="white" stop-opacity="0.3"/>
</linearGradient>
<linearGradient id="paint2_linear_29_2" x1="15.582" y1="15.5801" x2="32.418" y2="32.4181" gradientUnits="userSpaceOnUse">
<stop stop-color="white" stop-opacity="0.7"/>
<stop offset="0.519" stop-color="white" stop-opacity="0.45"/>
<stop offset="1" stop-color="white" stop-opacity="0.55"/>
</linearGradient>
</defs>
</svg>

