<svg width="48" height="48" viewBox="0 0 48 48" fill="none" xmlns="http://www.w3.org/2000/svg">
<path d="M44 24C44 26.21 42.21 28 40 28H8C5.79 28 4 26.21 4 24C4 21.79 5.79 20 8 20H40C42.21 20 44 21.79 44 24ZM8 14H40C42.21 14 44 12.21 44 10C44 7.79 42.21 6 40 6H8C5.79 6 4 7.79 4 10C4 12.21 5.79 14 8 14ZM40 34H8C5.79 34 4 35.79 4 38C4 40.21 5.79 42 8 42H40C42.21 42 44 40.21 44 38C44 35.79 42.21 34 40 34Z" fill="url(#paint0_linear_29_6)"/>
<path d="M40 7C41.654 7 43 8.346 43 10C43 11.654 41.654 13 40 13H8C6.346 13 5 11.654 5 10C5 8.346 6.346 7 8 7H40ZM40 21C41.654 21 43 22.346 43 24C43 25.654 41.654 27 40 27H8C6.346 27 5 25.654 5 24C5 22.346 6.346 21 8 21H40ZM40 35C41.654 35 43 36.346 43 38C43 39.654 41.654 41 40 41H8C6.346 41 5 39.654 5 38C5 36.346 6.346 35 8 35H40ZM40 6H8C5.79 6 4 7.79 4 10C4 12.21 5.79 14 8 14H40C42.21 14 44 12.21 44 10C44 7.79 42.21 6 40 6ZM40 20H8C5.79 20 4 21.79 4 24C4 26.21 5.79 28 8 28H40C42.21 28 44 26.21 44 24C44 21.79 42.21 20 40 20ZM40 34H8C5.79 34 4 35.79 4 38C4 40.21 5.79 42 8 42H40C42.21 42 44 40.21 44 38C44 35.79 42.21 34 40 34Z" fill="url(#paint1_linear_29_6)"/>
<defs>
<linearGradient id="paint0_linear_29_6" x1="6.172" y1="6.172" x2="41.828" y2="41.828" gradientUnits="userSpaceOnUse">
<stop stop-color="white" stop-opacity="0.6"/>
<stop offset="1" stop-color="white" stop-opacity="0.3"/>
</linearGradient>
<linearGradient id="paint1_linear_29_6" x1="6.172" y1="6.172" x2="41.828" y2="41.828" gradientUnits="userSpaceOnUse">
<stop stop-color="white" stop-opacity="0.6"/>
<stop offset="0.493" stop-color="white" stop-opacity="0"/>
<stop offset="0.997" stop-color="white" stop-opacity="0.3"/>
</linearGradient>
</defs>
</svg>
